<?xml version="1.0" encoding="UTF-8"?>
<svg viewBox="120 330 880 360" fill="none" xmlns="http://www.w3.org/2000/svg" role="img" aria-label="Peak Academy">
<path d="M0 0 C337.92 0 675.84 0 1024 0 C1024 337.92 1024 675.84 1024 1024 C686.08 1024 348.16 1024 0 1024 C0 686.08 0 348.16 0 0 Z " fill="#071325" transform="translate(0,0)"/>
<path d="M0 0 C0.99 0.495 0.99 0.495 2 1 C1.50693359 2.16450684 1.50693359 2.16450684 1.00390625 3.35253906 C-7.92424138 24.49337643 -16.55427651 45.74976528 -25.0625 67.0625 C-25.32201195 67.7125639 -25.5815239 68.36262779 -25.84889984 69.03239059 C-28.65153407 76.05382868 -31.45119058 83.0764514 -34.24951172 90.09960938 C-37.58104066 98.46013524 -40.92328259 106.81635824 -44.26803589 115.17160034 C-45.5777506 118.44357841 -46.88650551 121.71593998 -48.1953125 124.98828125 C-48.88608887 126.70265381 -48.88608887 126.70265381 -49.59082031 128.45166016 C-50.61395535 131.0279326 -51.61153403 133.60721953 -52.58886719 136.20068359 C-52.85480682 136.89485886 -53.12074646 137.58903412 -53.39474487 138.304245 C-53.90655965 139.641727 -54.40955354 140.98262806 -54.90237427 142.32722473 C-55.60107422 144.13745117 -55.60107422 144.13745117 -57 147 C-61.22622786 148.40874262 -63.82225047 146.6152078 -67.6796875 144.86328125 C-68.46298431 144.51679535 -69.24628113 144.17030945 -70.05331421 143.81332397 C-72.66470747 142.65551086 -75.26973157 141.48402244 -77.875 140.3125 C-79.7102192 139.49561767 -81.54583851 138.67963367 -83.38183594 137.86450195 C-87.26374581 136.13917384 -91.14306423 134.40819327 -95.02050781 132.67285156 C-100.91160778 130.03720136 -106.81034434 127.41900235 -112.7109375 124.8046875 C-123.81348511 119.88366424 -134.90849826 114.94586388 -146 110 C-146.79065857 109.64752197 -147.58131714 109.29504395 -148.39593506 108.93188477 C-152.62522234 107.04622812 -156.85370589 105.15879259 -161.08068848 103.26797485 C-162.87088001 102.46729636 -164.66150593 101.66758932 -166.45214844 100.86791992 C-171.35288356 98.67141253 -176.22789184 96.46489761 -181 94 C-178.09822552 91.09822552 -174.48067438 90.08551563 -170.7109375 88.640625 C-169.84437027 88.30348984 -168.97780304 87.96635468 -168.0849762 87.6190033 C-165.1834686 86.49125666 -162.27921146 85.37076312 -159.375 84.25 C-156.28036673 83.04900667 -153.186476 81.84611278 -150.09257507 80.64323425 C-147.89515578 79.78910322 -145.69748694 78.93561396 -143.49958801 78.0827179 C-134.97200558 74.77250509 -126.45435022 71.43746761 -117.94140625 68.08984375 C-117.00149841 67.7202611 -117.00149841 67.7202611 -116.04260254 67.34321213 C-111.67399269 65.62525715 -107.30573509 63.90640761 -102.9375 62.1875 C-98.25938469 60.34696857 -93.58095653 58.5072352 -88.90234375 56.66796875 C-87.89039444 56.2696434 -86.87844513 55.87131805 -85.83583069 55.46092224 C-84.86254318 55.07831741 -83.88925568 54.69571259 -82.88647461 54.30151367 C-81.93435593 53.92654755 -80.98223724 53.55158142 -80.00126648 53.16525269 C-77.85266891 52.33105182 -75.69756676 51.51352876 -73.53840637 50.70706177 C-72.38910141 50.27626312 -71.23979645 49.84546448 -70.05566406 49.40161133 C-68.49032928 48.82253777 -68.49032928 48.82253777 -66.89337158 48.23176575 C-62.35389528 46.29922053 -58.66161604 43.54442873 -54.8125 40.5 C-53.17522153 39.25032887 -51.53718199 38.00165431 -49.8984375 36.75390625 C-48.67592285 35.81248779 -48.67592285 35.81248779 -47.42871094 34.85205078 C-43.65206376 31.97211055 -39.79707934 29.20472961 -35.9375 26.4375 C-34.45820397 25.3712732 -32.97903748 24.30486667 -31.5 23.23828125 C-29.20397241 21.58524209 -26.90716059 19.9333096 -24.609375 18.28271484 C-12.13822518 9.36350428 -12.13822518 9.36350428 0 0 Z " fill="#EB6715" transform="translate(294,514)"/>
<path d="M0 0 C2.89403091 2.55915255 4.55393972 5.46944826 6.44140625 8.8203125 C6.76500122 9.39116577 7.08859619 9.96201904 7.42199707 10.5501709 C8.11385692 11.77177599 8.80354216 12.9946148 9.49124146 14.21856689 C11.29712777 17.43235825 13.11871139 20.63724921 14.9375 23.84375 C15.29465591 24.47455475 15.65181183 25.1053595 16.01979065 25.75527954 C18.65501069 30.40625326 21.33474116 35.0278391 24.0625 39.625 C34.91763226 57.96027571 45.44956242 76.48826247 56 95 C53.31894028 98.24549335 49.82584313 99.66242831 46.0703125 101.3359375 C45.37671631 101.65142044 44.68312012 101.96690338 43.96850586 102.29194641 C41.69024378 103.32618989 39.40773047 104.35066138 37.125 105.375 C35.532144 106.09556797 33.93953585 106.81668406 32.34716797 107.53833008 C28.32235914 109.36009287 24.29386049 111.1735111 20.26367188 112.9833374 C18.16746464 113.92478811 16.07187007 114.8675842 13.9765625 115.81103516 C6.85158387 119.01844657 -0.27999531 122.21092691 -7.41455078 125.39697266 C-11.17264408 127.07718787 -14.92848761 128.76234197 -18.68359375 130.44921875 C-54.18463893 146.39487964 -54.18463893 146.39487964 -59 148 C-56.73174685 139.675767 -53.63197441 131.74587649 -50.40625 123.75390625 C-49.85360627 122.37570765 -49.30132769 120.99736259 -48.74938965 119.61888123 C-47.29765976 115.99622622 -45.84064381 112.37571998 -44.38256836 108.75561523 C-43.2247263 105.8784658 -42.07058161 102.99984109 -40.91666222 100.12111664 C-34.96042432 85.26206359 -28.95923216 70.42210865 -22.9067688 55.60197449 C-19.91380776 48.26542715 -16.95555038 40.91575681 -14.0234375 33.5546875 C-13.63444275 32.57827805 -13.245448 31.60186859 -12.84466553 30.59587097 C-11.28188161 26.67073497 -9.72039504 22.74508971 -8.16162109 18.81835938 C-6.99281565 15.8753986 -5.82087348 12.93370341 -4.6484375 9.9921875 C-4.11734879 8.65050003 -4.11734879 8.65050003 -3.57553101 7.28170776 C-3.25073761 6.46799713 -2.92594421 5.6542865 -2.59130859 4.81591797 C-2.30693939 4.10015594 -2.02257019 3.38439392 -1.72958374 2.64694214 C-1 1 -1 1 0 0 Z " fill="#F9FAFA" transform="translate(314,504)"/>
<path d="M0 0 C0.33 0 0.66 0 1 0 C1 48.84 1 97.68 1 148 C-3.04980535 145.97509732 -6.07499285 143.51669939 -9.4375 140.5625 C-10.69496964 139.47095907 -11.95278989 138.37982192 -13.2109375 137.2890625 C-14.16178223 136.46196777 -14.16178223 136.46196777 -15.13183594 135.61816406 C-17.92229919 133.20112402 -20.74048292 130.81755084 -23.5625 128.4375 C-24.62246594 127.54305182 -25.68236151 126.64852025 -26.7421875 125.75390625 C-27.27038086 125.30805176 -27.79857422 124.86219727 -28.34277344 124.40283203 C-30.10985272 122.90701036 -31.87172781 121.40521725 -33.6328125 119.90234375 C-34.22763428 119.39582275 -34.82245605 118.88930176 -35.43530273 118.36743164 C-36.57940035 117.39294805 -37.72220181 116.41694008 -38.86352539 115.43920898 C-41.75388302 112.96069514 -41.75388302 112.96069514 -45 111 C-45.2781958 111.73001221 -45.5563916 112.46002441 -45.84301758 113.2121582 C-46.91982163 115.80680381 -48.12506364 118.16551603 -49.51171875 120.60546875 C-50.01453369 121.49314941 -50.51734863 122.38083008 -51.03540039 123.29541016 C-51.58059326 124.2497998 -52.12578613 125.20418945 -52.6875 126.1875 C-53.25911865 127.19345215 -53.8307373 128.1994043 -54.41967773 129.23583984 C-60.0279899 139.08846446 -65.70016767 148.90434451 -71.375 158.71875 C-74.62475347 164.3425339 -77.84795004 169.98104297 -81.0625 175.625 C-87.15136672 186.30984505 -93.29545823 196.96742907 -99.59399414 207.53027344 C-100.99687959 209.89323457 -100.99687959 209.89323457 -101.90405273 212.07128906 C-104.27319377 217.36458218 -107.92102829 218.81336389 -113.02539062 220.86328125 C-114.52875977 221.42595703 -114.52875977 221.42595703 -116.0625 222 C-117.06861328 222.40605469 -118.07472656 222.81210937 -119.11132812 223.23046875 C-126.56057748 226.14647417 -126.56057748 226.14647417 -130 225 C-116.48375409 200.70063723 -116.48375409 200.70063723 -109.88989258 189.5859375 C-104.15778658 179.91638367 -98.57802617 170.15810125 -92.96875 160.41699219 C-91.02293134 157.03979997 -89.07447709 153.66414404 -87.125 150.2890625 C-81.3733286 140.33040817 -75.63114619 130.36695883 -69.9375 120.375 C-65.73078092 112.99526116 -61.47393689 105.64620926 -57.1875 98.3125 C-46.57148637 80.14917561 -36.08327664 61.91350379 -25.66143799 43.63824463 C-21.26947156 35.93902522 -16.84069932 28.26468264 -12.32324219 20.63842773 C-8.97694485 14.98595697 -5.72630765 9.28199343 -2.49609375 3.5625 C-1 1 -1 1 0 0 Z " fill="#EB6715" transform="translate(227,373)"/>
<path d="M0 0 C2.38246129 3.17661505 4.3192716 6.16711815 6.265625 9.6015625 C6.90056885 10.71805176 7.5355127 11.83454102 8.18969727 12.98486328 C8.52494415 13.57720764 8.86019104 14.169552 9.20559692 14.77984619 C11.00004614 17.95011146 12.80361481 21.11518953 14.60546875 24.28125 C14.97385361 24.92917511 15.34223846 25.57710022 15.7217865 26.24465942 C19.30976787 32.55289179 22.93187292 38.84122237 26.5625 45.125 C27.17641602 46.18799316 27.79033203 47.25098633 28.42285156 48.34619141 C29.66209635 50.491638 30.90151628 52.63698345 32.14111328 54.78222656 C35.26324604 60.18670644 38.38142437 65.59346702 41.5 71 C45.03102057 77.12083927 48.56218838 83.24159338 52.09432983 89.36178589 C53.12673478 91.15066918 54.15907956 92.93958717 55.19140625 94.72851562 C56.48685948 96.97337636 57.7824257 99.2181719 59.078125 101.46289062 C60.22214016 103.44543118 61.36347123 105.42952425 62.50146484 107.41552734 C63.42958816 109.01623009 64.37469739 110.60737129 65.34619141 112.18212891 C66.30233816 113.74654688 67.16366326 115.36838697 68 117 C66.55967994 121.32096019 63.25334312 122.85830396 59.625 125.3125 C58.06772199 126.38745879 56.51178176 127.46435759 54.95703125 128.54296875 C54.14314941 129.10677246 53.32926758 129.67057617 52.49072266 130.25146484 C48.37873727 133.13815759 44.34670538 136.1310357 40.3125 139.125 C34.2780707 143.59400232 28.22063407 148.02230951 22.09204102 152.36132812 C18.99338562 154.55969542 15.92295252 156.7903007 12.875 159.05859375 C12.18696289 159.56946533 11.49892578 160.08033691 10.79003906 160.60668945 C9.45561322 161.59984339 8.12410069 162.59692683 6.79589844 163.59838867 C2.22095625 167 2.22095625 167 0 167 C0 111.89 0 56.78 0 0 Z " fill="#FAFAFB" transform="translate(238,371)"/>
<path d="M0 0 C5.61 0 11.22 0 17 0 C17 27.39 17 54.78 17 83 C11.72 83 6.44 83 1 83 C0.67 81.02 0.34 79.04 0 77 C-0.556875 77.61875 -1.11375 78.2375 -1.6875 78.875 C-7.21155679 83.9511603 -13.95190586 83.57011135 -21.0390625 83.375 C-28.0543668 82.71082918 -32.47376136 79.83321367 -37.3125 74.875 C-44.26744331 65.82776176 -45.42672282 55.01081507 -44 44 C-41.64538321 36.58670119 -37.82068449 30.02859142 -31 26 C-25.90835634 23.43257726 -21.73691745 22.50205355 -16 22.5625 C-14.99066406 22.5325293 -14.99066406 22.5325293 -13.9609375 22.50195312 C-8.09681219 22.50761348 -6.6356267 23.77964188 -1 27 C-0.67 18.09 -0.34 9.18 0 0 Z " fill="#F7F7F8" transform="translate(669,517)"/>
<path d="M0 0 C10.085625 -0.12375 10.085625 -0.12375 20.375 -0.25 C22.47665527 -0.28641602 24.57831055 -0.32283203 26.74365234 -0.36035156 C28.4410704 -0.37205244 30.13849982 -0.38224094 31.8359375 -0.390625 C32.6916333 -0.41108887 33.5473291 -0.43155273 34.42895508 -0.45263672 C42.05997368 -0.45696883 48.3465405 1.72673631 54.8125 5.75 C61.5328 12.66230858 63.29061291 19.3892902 63.3190918 28.80419922 C63.2175673 34.61140038 62.21640718 39.07520605 59 44 C58.63777344 44.57105469 58.27554688 45.14210938 57.90234375 45.73046875 C53.20622795 52.17767858 45.60777479 54.73269431 38 56 C34.16145894 56.22439103 30.34331949 56.19056844 26.5 56.125 C25.48679687 56.11597656 24.47359375 56.10695313 23.4296875 56.09765625 C20.95302128 56.07429147 18.47647829 56.03842811 16 56 C16 62.93 16 69.86 16 77 C10.72 77 5.44 77 0 77 C0 51.59 0 26.18 0 0 Z " fill="#FBFCFC" transform="translate(411,423)"/>
<path d="M0 0 C5.28 0 10.56 0 16 0 C16.33 1.65 16.66 3.3 17 5 C18.3921875 4.0409375 18.3921875 4.0409375 19.8125 3.0625 C26.30739683 -1.1400803 33.52865838 -0.70748396 41 0 C45.55738893 1.73328008 48.64218999 4.55116502 52 8 C52.67095703 7.38511719 52.67095703 7.38511719 53.35546875 6.7578125 C54.26232422 5.94957031 54.26232422 5.94957031 55.1875 5.125 C55.77917969 4.59132813 56.37085938 4.05765625 56.98046875 3.5078125 C63.47335131 -1.33987157 71.29323123 -0.65519819 79 0 C84.92026457 1.57634881 88.62644716 4.89147713 92 10 C94.77539425 16.2833491 95.41684341 22.04445966 95.29296875 28.84765625 C95.28872391 29.74495956 95.28447906 30.64226288 95.28010559 31.5667572 C95.26347363 34.39899243 95.22585197 37.23048424 95.1875 40.0625 C95.17243309 41.99673443 95.15874822 43.93098014 95.14648438 45.86523438 C95.11362112 50.57710411 95.06194841 55.28842655 95 60 C89.39 60 83.78 60 78 60 C77.97421875 57.24269531 77.9484375 54.48539063 77.921875 51.64453125 C77.88343563 48.96693823 77.83828158 46.28953656 77.79248047 43.61206055 C77.76429741 41.75473197 77.7430696 39.89728405 77.72900391 38.03979492 C77.70753716 35.36575339 77.66086931 32.69314265 77.609375 30.01953125 C77.60814636 29.19226028 77.60691772 28.36498932 77.60565186 27.51264954 C77.47734341 22.434407 76.8371345 19.67508425 73 16 C69.24901149 14.12450575 65.18092641 14.73757191 61.1875 15.625 C58.04275267 17.60169832 57.91902498 19.42735979 57 23 C56.69259493 25.89283875 56.62908612 28.77217753 56.5859375 31.6796875 C56.56657135 32.49245148 56.5472052 33.30521545 56.5272522 34.14260864 C56.46782117 36.71996812 56.42121819 39.29737315 56.375 41.875 C56.33678657 43.63022702 56.29773291 45.38543597 56.2578125 47.140625 C56.16057937 51.42698536 56.08072326 55.71317019 56 60 C50.39 60 44.78 60 39 60 C38.95101562 57.23109375 38.90203125 54.4621875 38.8515625 51.609375 C38.7975398 48.92523838 38.74023737 46.24119042 38.68261719 43.55712891 C38.6443541 41.69293838 38.60949654 39.8286747 38.578125 37.96435547 C38.53241644 35.28326284 38.47443178 32.60267267 38.4140625 29.921875 C38.40251129 29.08944275 38.39096008 28.2570105 38.37905884 27.39935303 C38.32375283 21.88747522 38.32375283 21.88747522 36 17 C32.32479973 14.95822207 29.1599846 14.56666827 25 15 C22.34424363 16.20716199 20.5859293 17.17718382 18.88525391 19.56542969 C17.55897852 23.21286988 17.64060687 26.86692746 17.5859375 30.703125 C17.56657135 31.54091492 17.5472052 32.37870483 17.5272522 33.24188232 C17.46759276 35.91115213 17.42112587 38.58046539 17.375 41.25 C17.33680764 43.06251854 17.29775518 44.87501918 17.2578125 46.6875 C17.1602871 51.1249055 17.08061148 55.56212607 17 60 C11.39 60 5.78 60 0 60 C0 40.2 0 20.4 0 0 Z " fill="#F5F6F6" transform="translate(765,540)"/>
<path d="M0 0 C0.70455322 0.00394775 1.40910645 0.00789551 2.13500977 0.01196289 C7.93013286 0.17213803 12.88165698 1.19415698 17.125 5.4375 C17.455 3.7875 17.785 2.1375 18.125 0.4375 C23.405 0.4375 28.685 0.4375 34.125 0.4375 C34.125 20.2375 34.125 40.0375 34.125 60.4375 C28.845 60.4375 23.565 60.4375 18.125 60.4375 C17.63 57.4675 17.63 57.4675 17.125 54.4375 C16.238125 55.22125 15.35125 56.005 14.4375 56.8125 C8.65183895 61.55110407 3.46161714 62.11641084 -3.875 61.4375 C-12.40888305 59.88844532 -17.96787906 55.10965276 -23.25 48.4375 C-27.71659594 40.19147673 -28.12256513 30.59910649 -26.875 21.4375 C-24.06881415 12.32987902 -19.17876304 6.59848199 -11.1484375 1.8125 C-7.3524374 0.21799877 -4.05083647 -0.05801293 0 0 Z " fill="#F9F9FA" transform="translate(572.875,440.5625)"/>
<path d="M0 0 C2.40787662 1.44472597 4.66261477 2.88159641 6.8125 4.6875 C6.8125 2.7075 6.8125 0.7275 6.8125 -1.3125 C12.0925 -1.3125 17.3725 -1.3125 22.8125 -1.3125 C22.8125 18.4875 22.8125 38.2875 22.8125 58.6875 C17.5325 58.6875 12.2525 58.6875 6.8125 58.6875 C6.3175 55.7175 6.3175 55.7175 5.8125 52.6875 C5.090625 53.30625 4.36875 53.925 3.625 54.5625 C-2.98390425 59.55589432 -10.27980604 59.562017 -18.25048828 58.96435547 C-24.11724463 58.12582488 -28.30438601 54.89759822 -32.0546875 50.49609375 C-38.96196882 40.73005724 -39.41451741 30.28652888 -38.1875 18.6875 C-35.92466194 10.01504157 -29.89514626 4.50285708 -22.3984375 0.01953125 C-15.85389513 -2.69541881 -6.62573585 -2.72231321 0 0 Z " fill="#F7F8F9" transform="translate(592.1875,541.3125)"/>
<path d="M0 0 C6.27 0 12.54 0 19 0 C25.33826821 14.99791835 31.67188504 29.9977947 38 45 C38.36931641 45.87541443 38.73863281 46.75082886 39.11914062 47.652771 C41.03102623 52.18521653 42.94108241 56.71842215 44.8475647 61.25314331 C45.40698125 62.58309655 45.96701842 63.91278892 46.52767944 65.24221802 C47.29488767 67.06180655 48.05963152 68.88243358 48.82421875 70.703125 C49.24791748 71.71020508 49.67161621 72.71728516 50.1081543 73.75488281 C51 76 51 76 51 77 C45.06 77 39.12 77 33 77 C30.5324326 72.06486519 28.17350821 67.07151915 26 62 C14.78 61.67 3.56 61.34 -8 61 C-8.99 64.3 -9.98 67.6 -11 71 C-11.99 73.31 -12.98 75.62 -14 78 C-19.94 78 -25.88 78 -32 78 C-29.29615621 69.26904258 -25.72465301 60.91622572 -22.1875 52.5 C-21.52576789 50.91902583 -20.86423104 49.33796992 -20.20288086 47.75683594 C-13.52712796 31.81317354 -6.77227817 15.90285352 0 0 Z " fill="#F8F9FA" transform="translate(439,522)"/>
<path d="M0 0 C1.15299829 3.45899486 0.87385352 3.98676246 -0.45605469 7.2265625 C-0.97402367 8.50824059 -0.97402367 8.50824059 -1.50245667 9.81581116 C-2.08131874 11.20635963 -2.08131874 11.20635963 -2.671875 12.625 C-3.06579941 13.59227524 -3.45972382 14.55955048 -3.86558533 15.55613708 C-5.15152302 18.70780133 -6.450645 21.85384661 -7.75 25 C-8.62824185 27.14555397 -9.5056016 29.29146922 -10.38208008 31.43774414 C-12.11583297 35.67945287 -13.8545456 39.9190675 -15.59814453 44.15673828 C-17.64827338 49.14032572 -19.68664216 54.12854646 -21.71484375 59.12109375 C-21.97836639 59.76970367 -22.24188904 60.4183136 -22.51339722 61.08657837 C-22.76388824 61.70318329 -23.01437927 62.31978821 -23.27246094 62.95507812 C-25.17576402 67.63912147 -27.08695415 72.31992887 -29 77 C-44.20154625 70.8711076 -59.18319692 64.29533926 -74.125 57.5625 C-75.01356689 57.16250793 -75.90213379 56.76251587 -76.81762695 56.35040283 C-79.3819033 55.19517681 -81.94512615 54.03765466 -84.5078125 52.87890625 C-85.65970566 52.3590641 -85.65970566 52.3590641 -86.83486938 51.82872009 C-90.93521083 49.969247 -94.98699756 48.04379826 -99 46 C-96.94323753 43.94323753 -95.7359553 43.35747999 -93.07397461 42.3269043 C-92.25849655 42.00814331 -91.44301849 41.68938232 -90.60282898 41.36096191 C-89.71166885 41.01883667 -88.82050873 40.67671143 -87.90234375 40.32421875 C-86.50850212 39.78214783 -86.50850212 39.78214783 -85.08650208 39.22912598 C-83.08297868 38.45054261 -81.0785634 37.67425127 -79.07336426 36.8999939 C-75.92461723 35.68251883 -72.77974523 34.45549931 -69.63574219 33.22583008 C-60.1953062 29.53818959 -50.74601149 25.88575066 -41.23828125 22.375 C-26.00803933 16.70801131 -12.48011612 10.72482553 0 0 Z " fill="#081123" transform="translate(256,563)"/>
<path d="M0 0 C5.61 0 11.22 0 17 0 C17.33 14.52 17.66 29.04 18 44 C26.31880572 35.08552899 26.31880572 35.08552899 34.0625 25.6875 C37.88035684 21.78416876 41.1776363 21.51012074 46.40209961 21.39575195 C50.28714991 21.45671769 54.12727775 21.68088453 58 22 C58 24 58 24 55.9375 26.1875 C54.96123159 27.12801773 53.98176493 28.0652213 53 29 C43.85297631 37.62564549 43.85297631 37.62564549 37 48 C38.76892808 50.5221889 40.53974823 53.04299951 42.3125 55.5625 C42.8477832 56.32377197 43.38306641 57.08504395 43.93457031 57.86938477 C46.66672003 61.74180189 49.42158824 65.59273347 52.24609375 69.3984375 C52.75164795 70.07962646 53.25720215 70.76081543 53.77807617 71.46264648 C54.74667087 72.76219243 55.71938851 74.05867726 56.6965332 75.35180664 C60 79.78271981 60 79.78271981 60 82 C53.33158831 83.20755946 46.52535158 84.32501352 40 82 C33.23935069 76.38498074 27.77198207 67.31594622 25 59 C21.62958115 60.89969062 20.09330329 61.82482121 18 65 C16.77238173 70.57868804 17.04368524 76.320919 17 82 C11.39 82 5.78 82 0 82 C0 54.94 0 27.88 0 0 Z " fill="#F7F8F8" transform="translate(619,419)"/>
<path d="M0 0 C0.78246094 -0.02900391 1.56492187 -0.05800781 2.37109375 -0.08789062 C9.61521355 -0.16597815 14.7149615 1.9547386 20.125 6.75 C20.8675 7.595625 21.61 8.44125 22.375 9.3125 C23.07625 10.075625 23.7775 10.83875 24.5 11.625 C30.10352041 19.65671258 29.375 25.00929147 29.375 35.3125 C15.515 35.3125 1.655 35.3125 -12.625 35.3125 C-9.81930576 40.92388848 -8.09792095 43.57603952 -2.625 46.3125 C4.96548905 47.13139093 10.99018696 45.56904202 17.375 41.3125 C18.52998897 42.38606677 19.67367867 43.47179788 20.8125 44.5625 C21.45058594 45.16578125 22.08867188 45.7690625 22.74609375 46.390625 C24.46016306 48.41298016 24.96858878 49.72520605 25.375 52.3125 C17.00975463 59.68188282 9.81059861 61.70243554 -1.2734375 61.58984375 C-9.45384431 60.91291032 -16.76144551 56.99322651 -22.625 51.3125 C-29.31644872 42.95244575 -30.6223904 33.79756655 -29.625 23.3125 C-27.76079377 15.6756097 -23.96964931 9.1332251 -17.30859375 4.80859375 C-15.10897561 3.56932253 -12.89704644 2.41217048 -10.625 1.3125 C-7.30526002 -0.34736999 -3.6461202 0.04375344 0 0 Z " fill="#F7F8F9" transform="translate(509.625,440.6875)"/>
<path d="M0 0 C1.98828125 1.3828125 1.98828125 1.3828125 3.8125 2.9375 C4.46605469 3.49179687 5.11960937 4.04609375 5.79296875 4.6171875 C11.00199568 9.45030527 13.40648389 13.90741946 14.8125 20.9375 C14.8125 24.8975 14.8125 28.8575 14.8125 32.9375 C0.6225 32.9375 -13.5675 32.9375 -28.1875 32.9375 C-23.94735341 40.75584557 -23.94735341 40.75584557 -17.1875 43.9375 C-11.00253198 44.64377694 -6.6217351 44.17216375 -1.1875 40.9375 C0.7109375 40.09375 0.7109375 40.09375 2.8125 39.9375 C4.953125 41.58984375 4.953125 41.58984375 7.0625 43.875 C7.76890625 44.62652344 8.4753125 45.37804687 9.203125 46.15234375 C9.99976563 47.03599609 9.99976563 47.03599609 10.8125 47.9375 C9.55498595 51.71004215 8.31849175 52.11230476 4.9375 54.0625 C4.05320312 54.58070313 3.16890625 55.09890625 2.2578125 55.6328125 C-5.70307967 59.88031727 -17.90269191 59.27748689 -26.484375 57.1015625 C-33.97488094 53.63545882 -39.14021403 47.70704584 -42.625 40.3125 C-45.54052919 32.15655844 -45.58786651 22.12033403 -42.34765625 14.02734375 C-38.6524113 7.37092609 -33.2860629 1.8655621 -26.29296875 -1.24609375 C-18.11921513 -3.39491703 -7.67216055 -3.96790434 0 0 Z " fill="#F9FAFB" transform="translate(740.1875,542.0625)"/>
<path d="M0 0 C5.94 0 11.88 0 18 0 C18.91523437 2.43117188 19.83046875 4.86234375 20.7734375 7.3671875 C21.66243835 9.7174544 22.55329513 12.06700977 23.44433594 14.41650391 C24.06314469 16.05118495 24.68001785 17.68660006 25.29492188 19.32275391 C26.17852447 21.67285177 27.06902827 24.02023169 27.9609375 26.3671875 C28.23497406 27.10057343 28.50901062 27.83395935 28.79135132 28.58956909 C30.3292308 32.64046471 30.3292308 32.64046471 33 36 C37.62 24.12 42.24 12.24 47 0 C52.28 0 57.56 0 63 0 C62.31367364 3.4316318 61.72013536 6.01509729 60.46875 9.16577148 C60.00143967 10.35109467 60.00143967 10.35109467 59.52468872 11.56036377 C59.18654144 12.40540466 58.84839417 13.25044556 58.5 14.12109375 C58.148237 15.0098822 57.796474 15.89867065 57.43405151 16.81439209 C56.29412136 19.69067683 55.1477207 22.56431577 54 25.4375 C53.21626719 27.40338519 52.43257581 29.36928689 51.64892578 31.33520508 C50.48944931 34.24261207 49.32918668 37.14969332 48.16653442 40.05583191 C46.11886623 45.17678993 44.09790452 50.30591548 42.1171875 55.453125 C41.36986266 57.36461109 40.62247578 59.27607293 39.875 61.1875 C39.57078125 62.00210693 39.2665625 62.81671387 38.953125 63.65600586 C36.23516301 70.4989183 32.09265981 76.05950757 25.8125 80 C16.77094419 82.37155562 9.12724585 81.59722998 1 77 C1.60745397 72.14036821 3.72758967 68.2594482 6 64 C6.680625 64.33 7.36125 64.66 8.0625 65 C11.6768802 66.2304273 14.2027047 66.47466191 18 66 C21.14658666 64.10350449 21.14658666 64.10350449 23 61 C22.69195997 55.51948938 21.01594815 51.03487433 18.8671875 46.07421875 C18.55226349 45.32775589 18.23733948 44.58129303 17.91287231 43.81221008 C16.90798985 41.4339346 15.89212956 39.06056014 14.875 36.6875 C13.55604561 33.58886502 12.24188751 30.48821948 10.9296875 27.38671875 C10.60595154 26.62326141 10.28221558 25.85980408 9.94866943 25.07321167 C6.45237377 16.78367762 3.22532158 8.3984023 0 0 Z " fill="#F9FAFA" transform="translate(864,541)"/>
<path d="M0 0 C3.6667636 1.22225453 3.87746507 2.05009257 5.6796875 5.35546875 C6.19047852 6.27803467 6.70126953 7.20060059 7.22753906 8.15112305 C8.04303223 9.65412964 8.04303223 9.65412964 8.875 11.1875 C10.03171367 13.2824333 11.19063006 15.37615163 12.3515625 17.46875 C12.9487207 18.54640625 13.54587891 19.6240625 14.16113281 20.734375 C17.62980935 26.89436138 21.28536972 32.94521062 24.94873047 38.9909668 C25.46580566 39.85375244 25.98288086 40.71653809 26.515625 41.60546875 C26.97227539 42.35981201 27.42892578 43.11415527 27.89941406 43.89135742 C28.9668977 45.93657841 29.54966388 47.74608685 30 50 C-3.75544717 65.52779507 -3.75544717 65.52779507 -18.5625 72.0625 C-19.97704468 72.69647705 -19.97704468 72.69647705 -21.42016602 73.34326172 C-22.27280029 73.71596191 -23.12543457 74.08866211 -24.00390625 74.47265625 C-24.73424072 74.79500244 -25.4645752 75.11734863 -26.21704102 75.44946289 C-28 76 -28 76 -30 75 C-20 50 -10 25 0 0 Z " fill="#0A1425" transform="translate(316,543)"/>
<path d="M0 0 C3.21299085 1.41627968 5.37087891 3.11817492 7.85058594 5.59179688 C8.59105164 6.32595825 9.33151733 7.06011963 10.09442139 7.81652832 C10.88310608 8.60926147 11.67179077 9.40199463 12.484375 10.21875 C13.29996887 11.03243042 14.11556274 11.84611084 14.95587158 12.68444824 C16.67632978 14.40354646 18.3942689 16.12516894 20.10986328 17.84912109 C22.74680932 20.49679634 25.3942738 23.13361531 28.04296875 25.76953125 C29.71157942 27.439463 31.37956986 29.11001478 33.046875 30.78125 C34.24204742 31.97034973 34.24204742 31.97034973 35.46136475 33.18347168 C36.55315033 34.28471375 36.55315033 34.28471375 37.66699219 35.40820312 C38.31222839 36.05503052 38.9574646 36.70185791 39.62225342 37.36828613 C41 39 41 39 41 41 C40.21616943 41.29430908 39.43233887 41.58861816 38.62475586 41.8918457 C34.72677149 43.35955529 30.83148191 44.8342092 26.9375 46.3125 C25.84260254 46.72776947 25.84260254 46.72776947 24.72558594 47.15142822 C14.5481797 51.01979713 4.42902813 55.01658507 -5.65234375 59.12890625 C-6.71808121 59.56312393 -7.78381866 59.99734161 -8.8818512 60.44471741 C-14.20336954 62.61505117 -19.52029513 64.79593025 -24.83227539 66.98950195 C-26.79434297 67.79270188 -28.75649704 68.59569056 -30.71875 69.3984375 C-31.62870224 69.77799088 -32.53865448 70.15754425 -33.47618103 70.54859924 C-34.30839676 70.88753708 -35.14061249 71.22647491 -35.99804688 71.57568359 C-37.08998352 72.02649796 -37.08998352 72.02649796 -38.20397949 72.48641968 C-40 73 -40 73 -42 72 C-40.03528849 68.39622971 -38.0224428 64.82164292 -36 61.25 C-35.44699219 60.23421875 -34.89398438 59.2184375 -34.32421875 58.171875 C-30.62621756 51.71099936 -27.97858633 48.4702239 -21 46 C-19.21307328 45.26810966 -17.42630112 44.53582752 -15.64160156 43.79852295 C-12.27362996 42.41739367 -8.88553009 41.08735594 -5.5 39.75 C-4.09101753 39.19042712 -2.68216224 38.63053389 -1.2734375 38.0703125 C2.14958294 36.70984439 5.57430532 35.35372247 9 34 C9.21921489 31.85562056 9.21921489 31.85562056 7.43945312 30.21240234 C6.72724609 29.51066895 6.01503906 28.80893555 5.28125 28.0859375 C4.51425781 27.32539062 3.74726563 26.56484375 2.95703125 25.78125 C2.14621094 24.9871875 1.33539063 24.193125 0.5 23.375 C-0.71623047 22.17230469 -0.71623047 22.17230469 -1.95703125 20.9453125 C-3.96697438 18.95901576 -5.98142676 16.97751965 -8 15 C-6.66751142 11.60436023 -5.22578234 8.43154113 -3.4375 5.25 C-3.00308594 4.47140625 -2.56867188 3.6928125 -2.12109375 2.890625 C-1 1 -1 1 0 0 Z " fill="#EC6714" transform="translate(183,509)"/>
<path d="M0 0 C0.75587402 -0.01861084 1.51174805 -0.03722168 2.29052734 -0.05639648 C10.04213344 0.03044444 16.3124213 3.19635436 21.9375 8.5 C24.9375 12.84482759 24.9375 12.84482759 24.9375 15.5 C22.890625 17.0078125 22.890625 17.0078125 20.1875 18.625 C19.30578125 19.16382813 18.4240625 19.70265625 17.515625 20.2578125 C14.9375 21.5 14.9375 21.5 10.9375 21.5 C9.55881719 19.87064759 8.22475907 18.20250393 6.9375 16.5 C2.20887323 14.92379108 -3.3651876 14.17606459 -7.98046875 16.44140625 C-12.08024408 19.670612 -13.70811731 22.6940658 -14.34765625 27.7578125 C-14.73286408 34.2174515 -13.33027829 38.59506044 -9.0625 43.5 C-4.60552496 46.4713167 -0.28793443 46.25395554 4.9375 45.5 C7.55409741 44.11443956 8.87935799 42.71646063 10.9375 40.5 C11.5975 39.84 12.2575 39.18 12.9375 38.5 C16.8975 40.48 20.8575 42.46 24.9375 44.5 C23.72139766 50.5805117 21.95599581 52.93005881 17.125 56.6875 C8.35450104 61.67464647 -3.44502403 62.30324123 -13.14453125 59.66015625 C-21.80185434 55.71050194 -27.75526766 48.32027052 -31.0625 39.5 C-31.61009367 36.5174264 -31.68467623 33.6519468 -31.625 30.625 C-31.61404297 29.83633545 -31.60308594 29.0476709 -31.59179688 28.23510742 C-31.27004571 19.55229467 -28.62388378 13.64606012 -22.3125 7.625 C-20.92628556 6.54313891 -19.50949205 5.49911356 -18.0625 4.5 C-17.44117188 4.06558594 -16.81984375 3.63117187 -16.1796875 3.18359375 C-11.01911965 0.27950949 -5.79128759 0.09367393 0 0 Z " fill="#F8F9FA" transform="translate(523.0625,539.5)"/>
<path d="M0 0 C3.26097859 3.26097859 5.15888242 6.67612505 7.3125 10.6875 C12.14043927 19.54887248 17.20740175 28.25773187 22.3527832 36.93823242 C22.92730225 37.91381104 23.50182129 38.88938965 24.09375 39.89453125 C24.60615234 40.75925049 25.11855469 41.62396973 25.64648438 42.51489258 C26.97669918 44.95721879 28.02378825 47.39841897 29 50 C28.50185791 50.35715088 28.00371582 50.71430176 27.49047852 51.08227539 C25.17983286 52.74052231 22.87087526 54.40109395 20.5625 56.0625 C19.32693359 56.95134888 19.32693359 56.95134888 18.06640625 57.8581543 C13.12097238 61.42882406 8.25078091 65.05838787 3.53125 68.92578125 C2 70 2 70 0 70 C0 46.9 0 23.8 0 0 Z " fill="#0D1727" transform="translate(255,435)"/>
<path d="M0 0 C4.42534117 2.04876906 7.06595451 4.62965797 9.30859375 9.01171875 C11.03220209 13.96830996 10.62965904 18.96277197 8.75 23.8125 C6.40990385 28.07481799 4.01376634 30.32415577 0 33 C-4.51980351 33.74038686 -8.14113766 33.3889188 -12.3125 31.5 C-17.07916552 27.06589254 -19.19128895 22.52127527 -19.5625 16 C-19.34336064 10.73253917 -17.45404796 6.93579675 -14 3 C-9.68280514 -0.91979617 -5.58595284 -0.7777909 0 0 Z " fill="#0D1728" transform="translate(581,455)"/>
<path d="M0 0 C3.99521986 1.35686712 7.08017114 3.15263841 9.3046875 6.86328125 C11.12175473 12.4471901 11.22064106 19.59341501 9.234375 25.13671875 C8.25 26.6875 8.25 26.6875 6 29 C5.443125 29.598125 4.88625 30.19625 4.3125 30.8125 C0.11966148 32.96557924 -4.40639403 33.71932041 -9 32.4453125 C-13.18659232 30.40615331 -15.50698352 27.59259227 -17.33984375 23.34765625 C-18.98994069 17.47956002 -19.00556801 12.04837929 -16.3125 6.5625 C-11.08287955 0.76751518 -7.79723333 -1.11585848 0 0 Z " fill="#0B1425" transform="translate(588,554)"/>
<path d="M0 0 C3.135 -0.103125 6.27 -0.20625 9.5 -0.3125 C10.95696289 -0.38078003 10.95696289 -0.38078003 12.44335938 -0.45043945 C18.70649053 -0.54917677 23.33417351 0.63843512 28 5 C30.38692833 8.84468737 30.54516736 12.5790334 30 17 C28.2947568 21.75673103 26.52696448 23.79455577 22 26 C21.34 26.33 20.68 26.66 20 27 C18.47851674 27.08372659 16.95344222 27.10730027 15.4296875 27.09765625 C14.62257324 27.09515869 13.81545898 27.09266113 12.98388672 27.09008789 C11.9579541 27.08098389 10.93202148 27.07187988 9.875 27.0625 C4.986875 27.0315625 4.986875 27.0315625 0 27 C0 18.09 0 9.18 0 0 Z " fill="#131D2D" transform="translate(427,437)"/>
<path d="M0 0 C4.54159496 2.22951025 6.79312116 4.49796718 9 9 C9.73503579 14.6617622 10.44889392 21.63867076 7.3125 26.6875 C3.35483541 30.64516459 0.67584002 32.18019952 -4.9375 32.5 C-8.46744225 32.38952491 -10.69514775 31.99711465 -13.5 29.8125 C-18.36486262 24.33952955 -18.43253393 19.19946609 -18.3203125 12.10546875 C-17.7942273 7.00500854 -15.98986023 4.75700425 -12.1640625 1.37890625 C-8.35583687 -1.04763463 -4.35535289 -0.61924449 0 0 Z " fill="#0A1426" transform="translate(660,554)"/>
<path d="M0 0 C0.33 0 0.66 0 1 0 C1 16.17 1 32.34 1 49 C-3.7638407 45.42711948 -8.42009295 41.90342332 -13 38.125 C-13.94875 37.34382813 -14.8975 36.56265625 -15.875 35.7578125 C-16.57625 35.17773438 -17.2775 34.59765625 -18 34 C-17.40611749 29.70485973 -15.87132229 26.65772658 -13.69140625 22.9296875 C-13.20123268 22.08532639 -13.20123268 22.08532639 -12.70115662 21.22390747 C-11.66153183 19.43699473 -10.61210061 17.6560674 -9.5625 15.875 C-8.8606984 14.67093974 -8.15952013 13.46651594 -7.45898438 12.26171875 C-2.47063166 3.7059475 -2.47063166 3.7059475 0 0 Z " fill="#0A1221" transform="translate(210,436)"/>
<path d="M0 0 C0.66 0 1.32 0 2 0 C3.56872755 3.96847107 5.13525154 7.93780246 6.69970703 11.90795898 C7.23262475 13.25943702 7.76615211 14.61067483 8.30029297 15.96166992 C9.06637046 17.89960435 9.83027686 19.83838209 10.59375 21.77734375 C11.05458984 22.94515381 11.51542969 24.11296387 11.99023438 25.31616211 C13 28 13 28 13 29 C5.41 29 -2.18 29 -10 29 C-6.625 17.75 -6.625 17.75 -5.17578125 13.8671875 C-4.71655273 12.6296875 -4.71655273 12.6296875 -4.24804688 11.3671875 C-3.93931641 10.54476562 -3.63058594 9.72234375 -3.3125 8.875 C-2.83200195 7.58335937 -2.83200195 7.58335937 -2.34179688 6.265625 C-1.56399918 4.17601926 -0.78338154 2.08751732 0 0 Z " fill="#0F1828" transform="translate(447,540)"/>
<path d="M0 0 C0.66 0.33 1.32 0.66 2 1 C1.67560472 1.71740986 1.35120943 2.43481972 1.01698399 3.17396927 C-0.02679059 6.07444664 -0.25720389 8.15150135 -0.27174377 11.2164917 C-0.28632126 12.7628833 -0.28632126 12.7628833 -0.30119324 14.34051514 C-0.30178238 15.46145569 -0.30237152 16.58239624 -0.30297852 17.73730469 C-0.31141785 18.92682739 -0.31985718 20.1163501 -0.32855225 21.34191895 C-0.3499209 24.6035438 -0.36262453 27.86506863 -0.3717854 31.12674618 C-0.38376185 34.56641709 -0.40762749 38.00600432 -0.43040466 41.44561768 C-0.47206928 47.98530445 -0.50444747 54.5249992 -0.53287882 61.06475568 C-0.58358434 72.69422666 -0.64714854 84.3236235 -0.71821922 95.95298696 C-0.738711 99.36028066 -0.75706904 102.76755803 -0.77020454 106.17488861 C-0.83672304 123.13838682 -1.18240495 140.05513621 -2 157 C-2.33 157 -2.66 157 -3 157 C-3.495 83.74 -3.495 83.74 -4 9 C-7.3 14.94 -10.6 20.88 -14 27 C-14.33 27 -14.66 27 -15 27 C-15 25.35 -15 23.7 -15 22 C-14.34 22 -13.68 22 -13 22 C-12.731875 21.278125 -12.46375 20.55625 -12.1875 19.8125 C-11.00792738 17.01877538 -9.5578026 14.59633766 -8 12 C-7.67 11.0925 -7.34 10.185 -7 9.25 C-6.505 8.13625 -6.505 8.13625 -6 7 C-5.01 6.67 -4.02 6.34 -3 6 C-1.29144978 2.99992729 -1.29144978 2.99992729 0 0 Z " fill="#15090C" transform="translate(232,363)"/>
<path d="M0 0 C0.99 0.495 0.99 0.495 2 1 C-11.53197262 25.32763609 -11.53197262 25.32763609 -18.31884766 36.76123047 C-21.52103599 42.16224615 -24.64453452 47.6053622 -27.75 53.0625 C-32.86632345 62.05000169 -38.05829464 70.9917228 -43.28027344 79.91821289 C-43.8374707 80.87074951 -44.39466797 81.82328613 -44.96875 82.8046875 C-45.50508057 83.70413086 -46.04141113 84.60357422 -46.59399414 85.53027344 C-47.99687959 87.89323457 -47.99687959 87.89323457 -48.90405273 90.07128906 C-51.27319377 95.36458218 -54.92102829 96.81336389 -60.02539062 98.86328125 C-61.02763672 99.23839844 -62.02988281 99.61351562 -63.0625 100 C-64.06861328 100.40605469 -65.07472656 100.81210937 -66.11132812 101.23046875 C-73.56057748 104.14647417 -73.56057748 104.14647417 -77 103 C-75.85865673 100.99743426 -74.71181367 98.99800203 -73.5625 97 C-72.92441406 95.88625 -72.28632812 94.7725 -71.62890625 93.625 C-71.09136719 92.75875 -70.55382812 91.8925 -70 91 C-69.67 91 -69.34 91 -69 91 C-69.33 93.64 -69.66 96.28 -70 99 C-67.03 98.505 -67.03 98.505 -64 98 C-64 97.34 -64 96.68 -64 96 C-62.86111328 95.54560547 -62.86111328 95.54560547 -61.69921875 95.08203125 C-60.70535156 94.66308594 -59.71148437 94.24414062 -58.6875 93.8125 C-57.70136719 93.40644531 -56.71523437 93.00039063 -55.69921875 92.58203125 C-52.56943519 90.74764291 -51.58843064 89.21657204 -50 86 C-49.443125 84.906875 -48.88625 83.81375 -48.3125 82.6875 C-47.879375 81.800625 -47.44625 80.91375 -47 80 C-46.34 80 -45.68 80 -45 80 C-44.81824219 79.41992188 -44.63648438 78.83984375 -44.44921875 78.2421875 C-42.9581894 73.60852707 -41.31666424 69.30237645 -39 65 C-38.34 65 -37.68 65 -37 65 C-37 64.01 -37 63.02 -37 62 C-36.34 62 -35.68 62 -35 62 C-34.855625 61.21625 -34.71125 60.4325 -34.5625 59.625 C-34 57 -34 57 -33 55 C-32.34 55 -31.68 55 -31 55 C-31 53.68 -31 52.36 -31 51 C-30.01 51 -29.02 51 -28 51 C-27.80664062 50.28972656 -27.61328125 49.57945312 -27.4140625 48.84765625 C-27.15367187 47.92855469 -26.89328125 47.00945313 -26.625 46.0625 C-26.36976563 45.14597656 -26.11453125 44.22945312 -25.8515625 43.28515625 C-25 41 -25 41 -23 40 C-22.67 39.01 -22.34 38.02 -22 37 C-21.34 37 -20.68 37 -20 37 C-19.67 34.69 -19.34 32.38 -19 30 C-18.01 30 -17.02 30 -16 30 C-16 28.68 -16 27.36 -16 26 C-15.34 25.67 -14.68 25.34 -14 25 C-13.34786708 22.97536745 -13.34786708 22.97536745 -13 21 C-12.34 21 -11.68 21 -11 21 C-11 20.01 -11 19.02 -11 18 C-10.34 18 -9.68 18 -9 18 C-8.81824219 17.15115234 -8.81824219 17.15115234 -8.6328125 16.28515625 C-8.46523437 15.55167969 -8.29765625 14.81820313 -8.125 14.0625 C-7.96257812 13.33160156 -7.80015625 12.60070312 -7.6328125 11.84765625 C-7 10 -7 10 -5 9 C-4.27840576 7.35636866 -3.60648579 5.68949614 -3 4 C-2.34 4 -1.68 4 -1 4 C-0.67 2.68 -0.34 1.36 0 0 Z " fill="#CB6930" transform="translate(174,495)"/>
<path d="M0 0 C3.39070432 1.66560914 5.25026595 2.90947774 7.375 6 C8 8 8 8 8 12 C-0.91 12 -9.82 12 -19 12 C-17.8565811 6.28290548 -16.80917917 5.0878996 -13 1 C-9.05322303 -0.97338848 -4.30160477 -0.44290148 0 0 Z " fill="#101827" transform="translate(731,553)"/>
<path d="M0 0 C3.33152829 1.66576414 5.2734109 2.94314313 7.375 6 C8 8 8 8 8 12 C-0.91 12 -9.82 12 -19 12 C-17.11015122 6.33045367 -16.25049054 4.71917922 -12 1 C-8.28986322 -0.85506839 -4.04907177 -0.45334699 0 0 Z " fill="#111929" transform="translate(515,454)"/>
<path d="M0 0 C0.33 0 0.66 0 1 0 C1 48.84 1 97.68 1 148 C-2.4072219 146.29638905 -4.48035706 144.86767864 -7.25 142.375 C-7.95640625 141.74335937 -8.6628125 141.11171875 -9.390625 140.4609375 C-9.92171875 139.97882813 -10.4528125 139.49671875 -11 139 C-8 139 -8 139 -1 145 C-0.67 98.8 -0.34 52.6 0 5 C-0.66 5 -1.32 5 -2 5 C-2.66 6.65 -3.32 8.3 -4 10 C-4.33 9.34 -4.66 8.68 -5 8 C-4.0390625 6.0546875 -4.0390625 6.0546875 -2.625 3.875 C-2.16351563 3.15054687 -1.70203125 2.42609375 -1.2265625 1.6796875 C-0.82179687 1.12539063 -0.41703125 0.57109375 0 0 Z " fill="#D87940" transform="translate(227,373)"/>
<path d="M0 0 C4.77766406 0.66780775 8.77477207 2.54581507 13.11328125 4.54296875 C13.90773148 4.90334732 14.7021817 5.26372589 15.52070618 5.63502502 C17.23015593 6.41093865 18.93857421 7.18912802 20.64605713 7.96936035 C25.15878138 10.03095649 29.67937306 12.07517 34.19921875 14.12109375 C35.11070679 14.53416779 36.02219482 14.94724182 36.96130371 15.37283325 C45.48692065 19.23188969 54.04714563 23.00873331 62.625 26.75 C63.26015533 27.02742035 63.89531067 27.3048407 64.54971313 27.59066772 C67.53033889 28.8921705 70.51268777 30.18955466 73.49707031 31.48242188 C75.97776421 32.55713565 78.45599264 33.63671403 80.93261719 34.72070312 C82.21281923 35.27750793 83.49309052 35.83415356 84.7734375 36.390625 C85.91989746 36.89110352 87.06635742 37.39158203 88.24755859 37.90722656 C90.81623737 39.12300051 90.81623737 39.12300051 93 39 C94.65 35.04 96.3 31.08 98 27 C99.01351725 31.05406901 98.98587468 31.96467213 97.6875 35.6875 C97.42324219 36.47511719 97.15898437 37.26273438 96.88671875 38.07421875 C96 40 96 40 94 41 C92.00039988 41.039992 89.99952758 41.04346799 88 41 C88 40.34 88 39.68 88 39 C87.35933594 38.91621094 86.71867187 38.83242188 86.05859375 38.74609375 C81.8091233 37.70950517 78.02500469 35.8901042 74.0625 34.0625 C69.08713015 31.78093171 64.20377041 29.71496252 59 28 C57.23320291 27.1594329 55.48347962 26.28228904 53.75 25.375 C48.44142291 22.67414499 43.06563211 20.17359457 37.625 17.75 C36.86413086 17.40888184 36.10326172 17.06776367 35.31933594 16.71630859 C34.5874707 16.39227051 33.85560547 16.06823242 33.1015625 15.734375 C32.45525879 15.44788086 31.80895508 15.16138672 31.14306641 14.86621094 C29.48545452 14.19621698 27.79480259 13.60765254 26.09472656 13.05419922 C23.06035445 12.02055936 20.26752591 10.79217544 17.3828125 9.3984375 C15.85527344 8.66367187 15.85527344 8.66367187 14.296875 7.9140625 C13.25015625 7.40617188 12.2034375 6.89828125 11.125 6.375 C10.05507812 5.859375 8.98515625 5.34375 7.8828125 4.8125 C5.25364318 3.54486479 2.62611698 2.2739434 0 1 C0 0.67 0 0.34 0 0 Z " fill="#300F06" transform="translate(143,622)"/>
<path d="M0 0 C1.32 0.33 2.64 0.66 4 1 C-4.21989904 8.03041041 -12.88053809 14.22868096 -21.73974609 20.41308594 C-25.47449055 23.03523316 -29.17609011 25.70264196 -32.875 28.375 C-33.61097412 28.90496582 -34.34694824 29.43493164 -35.10522461 29.98095703 C-39.12914338 32.88787117 -43.11879312 35.83374834 -47.078125 38.828125 C-47.92133301 39.46186035 -48.76454102 40.0955957 -49.63330078 40.74853516 C-51.24724893 41.96397759 -52.85541502 43.18715187 -54.45654297 44.41943359 C-59.14270034 47.94043951 -63.33962759 50.38101176 -69 52 C-69.99 51.67 -70.98 51.34 -72 51 C-69.03 50.01 -66.06 49.02 -63 48 C-63 47.34 -63 46.68 -63 46 C-60.8125 44.5625 -60.8125 44.5625 -58 43 C-54.43805915 40.97955725 -54.43805915 40.97955725 -51.375 38.3125 C-50 37 -50 37 -47 37 C-47 36.34 -47 35.68 -47 35 C-46.01 35 -45.02 35 -44 35 C-43.67 34.01 -43.34 33.02 -43 32 C-42.01 32 -41.02 32 -40 32 C-40 31.34 -40 30.68 -40 30 C-38.35 29.34 -36.7 28.68 -35 28 C-35 27.34 -35 26.68 -35 26 C-34.030625 25.54625 -33.06125 25.0925 -32.0625 24.625 C-28.92920418 23.34213779 -28.92920418 23.34213779 -28 21 C-27.01 20.67 -26.02 20.34 -25 20 C-24.67 19.34 -24.34 18.68 -24 18 C-23.01 18 -22.02 18 -21 18 C-21 17.34 -21 16.68 -21 16 C-20.360625 15.71125 -19.72125 15.4225 -19.0625 15.125 C-16.84793921 14.17176549 -16.84793921 14.17176549 -16 12 C-15.2575 11.731875 -14.515 11.46375 -13.75 11.1875 C-10.37151397 9.72860831 -8.55279838 7.61825475 -6 5 C-4.67432801 4.31822584 -3.34246312 3.64808564 -2 3 C-1.34 2.01 -0.68 1.02 0 0 Z " fill="#2B0E09" transform="translate(291,513)"/>
<path d="M0 0 C1.15299829 3.45899486 0.87385352 3.98676246 -0.45605469 7.2265625 C-0.80136734 8.08101456 -1.14667999 8.93546661 -1.50245667 9.81581116 C-2.08131874 11.20635963 -2.08131874 11.20635963 -2.671875 12.625 C-3.06579941 13.59227524 -3.45972382 14.55955048 -3.86558533 15.55613708 C-5.15152302 18.70780133 -6.450645 21.85384661 -7.75 25 C-8.62824185 27.14555397 -9.5056016 29.29146922 -10.38208008 31.43774414 C-12.11583297 35.67945287 -13.8545456 39.9190675 -15.59814453 44.15673828 C-17.64827338 49.14032572 -19.68664216 54.12854646 -21.71484375 59.12109375 C-21.97836639 59.76970367 -22.24188904 60.4183136 -22.51339722 61.08657837 C-22.88913376 62.01148575 -22.88913376 62.01148575 -23.27246094 62.95507812 C-25.17576567 67.63912551 -27.08748372 72.31970735 -29 77 C-32.3 75.68 -35.6 74.36 -39 73 C-35.16380575 72.04095144 -33.67568464 72.08107884 -30 73 C-30 72.01 -30 71.02 -30 70 C-29.01 69.505 -29.01 69.505 -28 69 C-27.00444884 67.07086929 -27.00444884 67.07086929 -26.109375 64.6640625 C-25.73603027 63.71797119 -25.36268555 62.77187988 -24.97802734 61.79711914 C-24.57277832 60.75031982 -24.1675293 59.70352051 -23.75 58.625 C-22.86256296 56.36565602 -21.97450428 54.10655616 -21.0859375 51.84765625 C-20.72847946 50.93484138 -20.72847946 50.93484138 -20.36380005 50.00358582 C-18.34897603 44.86351406 -16.2924868 39.74081283 -14.2265625 34.62109375 C-13.5823044 33.02199376 -12.93809857 31.4228727 -12.29394531 29.82373047 C-11.33519579 27.44377935 -10.37567101 25.06415869 -9.41345215 22.68560791 C-8.50938969 20.44923981 -7.60969296 18.21116139 -6.7109375 15.97265625 C-6.43641754 15.29665878 -6.16189758 14.62066132 -5.87905884 13.92417908 C-4.46704105 10.5675659 -4.46704105 10.5675659 -4 7 C-4.94875 7.515625 -5.8975 8.03125 -6.875 8.5625 C-7.90625 9.036875 -8.9375 9.51125 -10 10 C-10.66 9.67 -11.32 9.34 -12 9 C-8.04 6.03 -4.08 3.06 0 0 Z " fill="#340F05" transform="translate(256,563)"/>
<path d="M0 0 C0.33 0 0.66 0 1 0 C1 16.17 1 32.34 1 49 C-3.7638407 45.42711948 -8.42009295 41.90342332 -13 38.125 C-13.94875 37.34382813 -14.8975 36.56265625 -15.875 35.7578125 C-16.57625 35.17773438 -17.2775 34.59765625 -18 34 C-17.40611749 29.70485973 -15.87132229 26.65772658 -13.69140625 22.9296875 C-13.20123268 22.08532639 -13.20123268 22.08532639 -12.70115662 21.22390747 C-11.66153183 19.43699473 -10.61210061 17.6560674 -9.5625 15.875 C-8.8606984 14.67093974 -8.15952013 13.46651594 -7.45898438 12.26171875 C-2.47063166 3.7059475 -2.47063166 3.7059475 0 0 Z M-2 7 C-2 7.66 -2 8.32 -2 9 C-2.66 9 -3.32 9 -4 9 C-4.29132813 9.59425781 -4.58265625 10.18851562 -4.8828125 10.80078125 C-5.49769531 12.04408203 -5.49769531 12.04408203 -6.125 13.3125 C-6.57359375 14.22 -7.0221875 15.1275 -7.484375 16.0625 C-9.49044739 19.95055782 -11.71109381 23.7054446 -13.9609375 27.45703125 C-15.2579404 30.63127518 -15.3096131 31.82727694 -14 35 C-12.05047353 36.9667535 -10.22179159 38.61967558 -8.0625 40.3125 C-7.51142578 40.76689453 -6.96035156 41.22128906 -6.39257812 41.68945312 C-3.55299768 44.21191297 -3.55299768 44.21191297 0 45 C0.04936158 39.90968245 0.08570105 34.81950357 0.10986328 29.72900391 C0.11993376 27.99655735 0.13359089 26.26412784 0.15087891 24.53173828 C0.17508162 22.04455361 0.18647239 19.55759325 0.1953125 17.0703125 C0.20563507 16.29317902 0.21595764 15.51604553 0.22659302 14.71536255 C0.22699271 12.80874507 0.1223214 10.90268964 0 9 C-0.66 8.34 -1.32 7.68 -2 7 Z " fill="#2E0C05" transform="translate(210,436)"/>
<path d="M0 0 C0.66 0.33 1.32 0.66 2 1 C-3.12021153 10.21096254 -8.35586988 19.34720401 -13.6875 28.4375 C-18.68775395 36.96449982 -23.57100028 45.54848361 -28.375 54.1875 C-33.04978901 62.59293749 -37.81371152 70.89843757 -43 79 C-43.33 78.34 -43.66 77.68 -44 77 C-43.07470849 74.96435867 -42.06011943 72.96879323 -41 71 C-40.505 69.96875 -40.01 68.9375 -39.5 67.875 C-38 65 -38 65 -36.375 62.875 C-34.91573333 60.88509091 -34.57033295 59.36280792 -34 57 C-33.01 56.505 -33.01 56.505 -32 56 C-31.34786708 53.97536745 -31.34786708 53.97536745 -31 52 C-30.34 52 -29.68 52 -29 52 C-29 50.68 -29 49.36 -29 48 C-28.01 47.505 -28.01 47.505 -27 47 C-26.67 46.01 -26.34 45.02 -26 44 C-25.34 44 -24.68 44 -24 44 C-23.896875 43.071875 -23.79375 42.14375 -23.6875 41.1875 C-22.9363995 37.70512497 -22.48257162 37.29867743 -20 35 C-17.65793005 31.44771547 -15.95884142 28.15497947 -15 24 C-14.34 23.67 -13.68 23.34 -13 23 C-11.87293294 20.88984046 -11.87293294 20.88984046 -10.875 18.4375 C-10.34519531 17.19806641 -10.34519531 17.19806641 -9.8046875 15.93359375 C-9.53914063 15.29550781 -9.27359375 14.65742188 -9 14 C-8.34 14 -7.68 14 -7 14 C-5.89178635 11.308624 -4.8997043 8.66568101 -4.0625 5.875 C-3.03929736 3.10633403 -2.24651285 1.83805597 0 0 Z " fill="#300F08" transform="translate(166,475)"/>
<path d="M0 0 C-1.32 0.33 -2.64 0.66 -4 1 C-4 1.66 -4 2.32 -4 3 C-4.77863403 3.30236572 -4.77863403 3.30236572 -5.57299805 3.61083984 C-7.94459917 4.53196813 -10.31605076 5.45348079 -12.6875 6.375 C-13.50412109 6.69210937 -14.32074219 7.00921875 -15.16210938 7.3359375 C-17.44213481 8.22210123 -19.72117514 9.11075451 -22 10 C-22.94875 10.36867188 -23.8975 10.73734375 -24.875 11.1171875 C-27.23751208 12.06040118 -27.23751208 12.06040118 -30.3125 13.75 C-39.56982127 18.41385957 -49.55790269 22.62706795 -60 23 C-57.68388565 20.68388565 -55.80514691 19.96341692 -52.77172852 18.73754883 C-51.6804213 18.29401566 -50.58911407 17.85048248 -49.46473694 17.39350891 C-48.28141281 16.91947128 -47.09808868 16.44543365 -45.87890625 15.95703125 C-44.6680687 15.46917648 -43.45723114 14.98132172 -42.20970154 14.47868347 C-39.64637348 13.44707002 -37.08140656 12.41965912 -34.51538086 11.39477539 C-31.22482427 10.07979417 -27.93983679 8.75147524 -24.65609837 7.41957569 C-21.5254607 6.15264738 -18.38939092 4.89941565 -15.25390625 3.64453125 C-14.07260635 3.16442093 -12.89130646 2.68431061 -11.67420959 2.18965149 C-10.57975021 1.7555748 -9.48529083 1.32149811 -8.35766602 0.87426758 C-7.39329117 0.48725174 -6.42891632 0.1002359 -5.43531799 -0.29850769 C-3 -1 -3 -1 0 0 Z " fill="#29100C" transform="translate(203,559)"/>
<path d="M0 0 C5.76872035 1.34864503 8.63883591 4.14851726 12.5625 8.3125 C13.11357422 8.88162109 13.66464844 9.45074219 14.23242188 10.03710938 C15.31716947 11.15788654 16.39856191 12.28192224 17.47631836 13.40942383 C20.46730449 16.53172388 23.39720027 19.53115577 26.8125 22.1875 C27.534375 22.785625 28.25625 23.38375 29 24 C29 24.66 29 25.32 29 26 C29.66 26 30.32 26 31 26 C31 26.66 31 27.32 31 28 C31.66 28 32.32 28 33 28 C33 28.66 33 29.32 33 30 C33.66 30 34.32 30 35 30 C35 30.66 35 31.32 35 32 C35.61875 32.2475 36.2375 32.495 36.875 32.75 C39.35068687 34.20628639 39.95125002 35.37812506 41 38 C41.66 38 42.32 38 43 38 C42.67 38.99 42.34 39.98 42 41 C29.46 28.46 16.92 15.92 4 3 C0.10240506 4.29919831 -0.34898764 5.7744288 -2.3125 9.3125 C-2.86550781 10.27800781 -3.41851562 11.24351562 -3.98828125 12.23828125 C-5.28272151 14.89082273 -5.28272151 14.89082273 -4.29296875 17.16796875 C-3.86628906 17.77253906 -3.43960938 18.37710938 -3 19 C-2.34 19.99 -1.68 20.98 -1 22 C-2.65 21.67 -4.3 21.34 -6 21 C-7.35616438 13.16438356 -7.35616438 13.16438356 -6 10 C-5.54625 9.566875 -5.0925 9.13375 -4.625 8.6875 C-2.18338738 6.1519792 -1.29220897 3.2612893 0 0 Z " fill="#2C0E07" transform="translate(181,507)"/>
<path d="M0 0 C4.91935902 4.11619836 9.52647956 8.40410362 14 13 C10.50906578 16.05106079 6.62876851 17.3224552 2.3046875 18.7578125 C-17.9355263 24.74840779 -17.9355263 24.74840779 -32 39.125 C-33.13783822 41.72502705 -34.07113422 44.31209466 -35 47 C-36.6875 49.4921875 -36.6875 49.4921875 -38 51 C-36.27416069 41.2202439 -36.27416069 41.2202439 -33.50280762 38.56616211 C-31.75494911 36.74461839 -31.43960774 35.48795271 -30.83007812 33.06640625 C-29.6251629 29.66872395 -28.54789999 28.31882821 -25.31054688 26.71484375 C-23.79201007 26.09212899 -22.26020185 25.50110793 -20.71875 24.9375 C-19.9088562 24.61587891 -19.0989624 24.29425781 -18.26452637 23.96289062 C-15.6862272 22.94741907 -13.0941394 21.97418675 -10.5 21 C-8.75549692 20.31638277 -7.01199286 19.63021032 -5.26953125 18.94140625 C7.37888458 14 7.37888458 14 11 14 C8.45395403 10.47618313 8.45395403 10.47618313 5 8 C5 7.34 5 6.68 5 6 C4.34 6 3.68 6 3 6 C3 5.34 3 4.68 3 4 C2.01 3.67 1.02 3.34 0 3 C0 2.01 0 1.02 0 0 Z " fill="#2F0C05" transform="translate(180,529)"/>
<path d="M0 0 C0.66 0 1.32 0 2 0 C2 0.66 2 1.32 2 2 C0.55053711 3.26513672 0.55053711 3.26513672 -1.47265625 4.6796875 C-2.20806641 5.19660156 -2.94347656 5.71351563 -3.70117188 6.24609375 C-4.48041016 6.78363281 -5.25964844 7.32117188 -6.0625 7.875 C-7.19075195 8.66970703 -7.19075195 8.66970703 -8.34179688 9.48046875 C-14.50108528 13.77863884 -20.64204469 17.59514214 -27.625 20.4375 C-29.16800781 21.06785156 -29.16800781 21.06785156 -30.7421875 21.7109375 C-34.06676192 23.02641659 -37.40582578 24.2977659 -40.75 25.5625 C-46.78220699 27.86151318 -52.42741503 30.49932543 -58 33.75 C-61.92161529 35.38400637 -64.77730003 35.21841552 -69 35 C-65.43393201 32.62262134 -61.68317523 31.20373324 -57.7109375 29.6640625 C-56.8930777 29.34343842 -56.0752179 29.02281433 -55.23257446 28.69247437 C-52.61468405 27.66661969 -49.99499558 26.64546493 -47.375 25.625 C-44.7766331 24.61116817 -42.1787014 23.59626246 -39.58169556 22.57894897 C-37.96744275 21.94677677 -36.35240084 21.31661425 -34.73641968 20.68887329 C-24.01579298 16.6335279 -24.01579298 16.6335279 -14.21875 10.80078125 C-13.44015625 10.23166016 -12.6615625 9.66253906 -11.859375 9.07617188 C-10.69148438 8.2031543 -10.69148438 8.2031543 -9.5 7.3125 C-8.28570312 6.42208008 -8.28570312 6.42208008 -7.046875 5.51367188 C-3.37961821 2.92912815 -3.37961821 2.92912815 0 0 Z " fill="#C26836" transform="translate(250,546)"/>
<path d="M0 0 C4.64664419 0.60823653 8.60025725 1.86373096 12.9375 3.625 C13.57921143 3.88498779 14.22092285 4.14497559 14.88208008 4.4128418 C20.36634971 6.66667863 25.74004426 9.14292415 31.07592773 11.72705078 C34.0147894 13.13902685 36.78630823 14.38596956 40 15 C40 15.66 40 16.32 40 17 C40.54527344 17.17015625 41.09054688 17.3403125 41.65234375 17.515625 C49.14195529 19.9225429 56.36269105 22.71786519 63 27 C61 28 61 28 59.15878296 27.40808105 C58.41206329 27.07167603 57.66534363 26.735271 56.89599609 26.38867188 C56.04685638 26.01077515 55.19771667 25.63287842 54.32284546 25.24353027 C52.93713852 24.61251404 52.93713852 24.61251404 51.5234375 23.96875 C50.56539215 23.54001587 49.6073468 23.11128174 48.62026978 22.66955566 C45.53515238 21.28705183 42.45502662 19.89380343 39.375 18.5 C37.35189273 17.59041097 35.3284587 16.68154836 33.3046875 15.7734375 C30.33327608 14.43983047 27.36217762 13.10556826 24.39251709 11.76806641 C16.28755447 8.11869895 8.15405847 4.53813294 0 1 C0 0.67 0 0.34 0 0 Z " fill="#C86A33" transform="translate(141,620)"/>
<path d="M0 0 C0.33 0 0.66 0 1 0 C1.29390625 1.51980469 1.29390625 1.51980469 1.59375 3.0703125 C2.95557168 7.82949564 5.96535752 10.5627103 9.5 13.875 C10.09425781 14.45507812 10.68851563 15.03515625 11.30078125 15.6328125 C14.38135982 18.68528319 14.38135982 18.68528319 18 21 C18 22.32 18 23.64 18 25 C17.22305786 25.3242395 17.22305786 25.3242395 16.43041992 25.6550293 C14.01537178 26.66409114 11.60125392 27.67534605 9.1875 28.6875 C8.31689941 29.05254639 7.44629883 29.41759277 6.54931641 29.79370117 C1.10224157 32.08739312 -4.28051389 34.48536806 -9.63671875 36.984375 C-12.03876402 38.01665892 -14.43717897 38.80311332 -16.9375 39.5625 C-20.50623153 40.67533026 -22.62535681 42.00588467 -25 45 C-24.5 42.75 -24.5 42.75 -23 40 C-15.57180671 35.76592983 -7.43801962 32.88568553 0.5 29.75 C1.90898247 29.19042712 3.31783776 28.63053389 4.7265625 28.0703125 C8.14958294 26.70984439 11.57430532 25.35372247 15 24 C15.21921489 21.85562056 15.21921489 21.85562056 13.43945312 20.21240234 C12.72724609 19.51066895 12.01503906 18.80893555 11.28125 18.0859375 C10.51425781 17.32539062 9.74726563 16.56484375 8.95703125 15.78125 C8.14621094 14.9871875 7.33539063 14.193125 6.5 13.375 C5.68917969 12.57320312 4.87835938 11.77140625 4.04296875 10.9453125 C2.03302562 8.95901576 0.01857324 6.97751965 -2 5 C-1.34 3.35 -0.68 1.7 0 0 Z " fill="#C56A37" transform="translate(177,519)"/>
<path d="M0 0 C0.33 1.32 0.66 2.64 1 4 C0.34 4 -0.32 4 -1 4 C-1.433125 5.36125 -1.433125 5.36125 -1.875 6.75 C-2.76531776 9.32202908 -3.71494413 11.61346766 -5 14 C-5.66 14 -6.32 14 -7 14 C-7.2371875 15.155 -7.474375 16.31 -7.71875 17.5 C-8.89078913 22.1799027 -10.96641516 25.92845631 -13.5 30 C-14.10521484 31.01900391 -14.10521484 31.01900391 -14.72265625 32.05859375 C-15.75150887 33.74618369 -16.86882692 35.3792147 -18 37 C-18.66 37 -19.32 37 -20 37 C-20.4021875 38.299375 -20.4021875 38.299375 -20.8125 39.625 C-21.98236948 42.94989221 -23.2280444 45.95223638 -25 49 C-26.485 49.495 -26.485 49.495 -28 50 C-26.70028749 46.58518037 -25.21739533 43.43236866 -23.41796875 40.25390625 C-22.90387451 39.34390869 -22.38978027 38.43391113 -21.86010742 37.49633789 C-21.30814697 36.52817139 -20.75618652 35.56000488 -20.1875 34.5625 C-19.61942627 33.5614624 -19.05135254 32.5604248 -18.46606445 31.52905273 C-12.43776991 20.94457566 -6.24045658 10.4604438 0 0 Z " fill="#2A0E09" transform="translate(150,540)"/>
<path d="M0 0 C0.66 0.33 1.32 0.66 2 1 C-2.25723524 4.88704087 -8.27543399 7 -14 7 C-14 7.66 -14 8.32 -14 9 C-15.95649397 9.83764268 -17.91525556 10.66999059 -19.875 11.5 C-20.96554688 11.9640625 -22.05609375 12.428125 -23.1796875 12.90625 C-26 14 -26 14 -28 14 C-28 14.99 -28 15.98 -28 17 C-27.319375 17.0825 -26.63875 17.165 -25.9375 17.25 C-22.1253093 18.22332528 -19.35929671 19.95807455 -16 22 C-16.66 22.33 -17.32 22.66 -18 23 C-20.7526037 21.9747506 -23.38836628 20.88865303 -26.0625 19.6875 C-26.80822266 19.36587891 -27.55394531 19.04425781 -28.32226562 18.71289062 C-33.8706496 16.2587008 -33.8706496 16.2587008 -35 14 C-30.05603514 11.97802082 -25.10813127 9.96613675 -20.15625 7.96362305 C-18.4711997 7.28053408 -16.78727252 6.5946679 -15.10449219 5.90600586 C-12.68972886 4.91834206 -10.27114261 3.94063728 -7.8515625 2.96484375 C-7.0963028 2.65344955 -6.34104309 2.34205536 -5.56289673 2.02122498 C-3.73122346 1.28820021 -1.86755264 0.63608127 0 0 Z " fill="#CD6A31" transform="translate(148,593)"/>
<path d="M0 0 C0.66 0.33 1.32 0.66 2 1 C0.68 3.97 -0.64 6.94 -2 10 C-2.66 8.68 -3.32 7.36 -4 6 C-7.06776922 8.22198448 -10.12821963 10.45384599 -13.1875 12.6875 C-14.05181641 13.31333984 -14.91613281 13.93917969 -15.80664062 14.58398438 C-21.08015935 18.41422583 -21.08015935 18.41422583 -25.859375 22.82421875 C-27.89684758 24.89515347 -29.4354757 25.96555786 -32.0625 27.125 C-34.99294482 28.48773994 -37.50030749 29.91692291 -40 32 C-40.66 31.67 -41.32 31.34 -42 31 C-31.670425 23.35915769 -21.32246259 15.74750334 -10.87744141 8.26489258 C-7.16991724 5.60147076 -3.53262304 2.89536555 0 0 Z " fill="#C86C39" transform="translate(294,514)"/>
<path d="M0 0 C2.97 0.33 5.94 0.66 9 1 C9 1.66 9 2.32 9 3 C9.7425 2.938125 10.485 2.87625 11.25 2.8125 C14 3 14 3 15.734375 4.31640625 C18.61011367 6.45337757 21.7149922 7.75739215 25 9.125 C25.92425781 9.52138672 25.92425781 9.52138672 26.8671875 9.92578125 C29.87268475 11.19634554 32.79812134 12.34361488 36 13 C36 13.66 36 14.32 36 15 C36.680625 15.0825 37.36125 15.165 38.0625 15.25 C41.8746907 16.22332528 44.64070329 17.95807455 48 20 C46 21 46 21 44.23661804 20.45036316 C43.52777969 20.13440689 42.81894135 19.81845062 42.08862305 19.49291992 C41.28406174 19.13892624 40.47950043 18.78493256 39.65055847 18.42021179 C38.77974136 18.02759659 37.90892426 17.63498138 37.01171875 17.23046875 C36.11636917 16.83426834 35.22101959 16.43806793 34.29853821 16.02986145 C31.4248679 14.75641158 28.55614062 13.47223451 25.6875 12.1875 C22.82855387 10.91586885 19.9686535 9.64640458 17.1085968 8.37727356 C15.32694503 7.58570244 13.54613768 6.7922273 11.76628113 5.99662781 C7.87049421 4.25720096 3.9808906 2.53861396 0 1 C0 0.67 0 0.34 0 0 Z " fill="#2F1008" transform="translate(169,614)"/>
<path d="M0 0 C0.66 0 1.32 0 2 0 C0.65072455 4.53847198 -1.19159348 8.31932246 -3.625 12.375 C-4.25664063 13.43460938 -4.88828125 14.49421875 -5.5390625 15.5859375 C-6.02117187 16.38257813 -6.50328125 17.17921875 -7 18 C-0.2438229 16.16148278 6.11491287 13.79129451 12.53125 10.98828125 C15 10 15 10 17 10 C17 10.66 17 11.32 17 12 C14.09399739 13.25664978 12.20395416 14 9 14 C8.67 14.99 8.34 15.98 8 17 C5.49147815 17.91218977 3.14114462 18.62141073 0.5625 19.25 C-0.13166016 19.435625 -0.82582031 19.62125 -1.54101562 19.8125 C-6.72519619 21.13740191 -6.72519619 21.13740191 -9 20 C-9.35139173 15.76834642 -8.54709321 13.77743118 -6.0625 10.375 C-4.21523306 7.81590206 -3.00605042 6.01815125 -2 3 C-1.34 3 -0.68 3 0 3 C0 2.01 0 1.02 0 0 Z " fill="#2D110B" transform="translate(105,580)"/>
<path d="M0 0 C1.19217138 3.9635623 0.56132717 5.65777677 -1.1875 9.4375 C-3.6391358 14.98953316 -5.50008441 20.56176394 -7.203125 26.3828125 C-8 29 -8 29 -9 31 C-9.66 31 -10.32 31 -11 31 C-10.938125 31.9075 -10.87625 32.815 -10.8125 33.75 C-11.01686856 37.29238832 -11.52653696 38.52653696 -14 41 C-14.66 41 -15.32 41 -16 41 C-13.27524223 32.27487313 -9.7776965 23.88735601 -6.3125 15.4375 C-5.6996065 13.93695647 -5.08697412 12.43630626 -4.47460938 10.93554688 C-2.98608128 7.28912737 -1.49402412 3.64417091 0 0 Z " fill="#33120A" transform="translate(290,527)"/>
<path d="M0 0 C0.33 0.66 0.66 1.32 1 2 C-0.37974778 5.90928537 -1.94819018 9.06876498 -4.4375 12.375 C-7.36319206 16.26705701 -9.17667268 20.50789191 -11 25 C-11.66 25 -12.32 25 -13 25 C-13.15662109 26.07314453 -13.15662109 26.07314453 -13.31640625 27.16796875 C-14.07522267 30.31163677 -15.26493706 32.55215773 -16.9375 35.3125 C-17.46214844 36.19550781 -17.98679688 37.07851563 -18.52734375 37.98828125 C-19.01332031 38.65214844 -19.49929687 39.31601562 -20 40 C-20.66 40 -21.32 40 -22 40 C-20.73004945 35.83168222 -19.16776406 32.26419022 -16.953125 28.515625 C-16.355 27.49726562 -15.756875 26.47890625 -15.140625 25.4296875 C-14.20476562 23.85574219 -14.20476562 23.85574219 -13.25 22.25 C-12.6415625 21.21617187 -12.033125 20.18234375 -11.40625 19.1171875 C-7.6382199 12.72441848 -3.82721159 6.3574826 0 0 Z " fill="#2B0F08" transform="translate(173,500)"/>
<path d="M0 0 C0.66 0 1.32 0 2 0 C2 13.2 2 26.4 2 40 C1.67 40 1.34 40 1 40 C0.505 22.675 0.505 22.675 0 5 C-1.98 7.97 -1.98 7.97 -4 11 C-4.66 11 -5.32 11 -6 11 C-6.4021875 12.0828125 -6.4021875 12.0828125 -6.8125 13.1875 C-7.98982498 15.97590126 -9.39145884 18.44095724 -11 21 C-11.33 20.34 -11.66 19.68 -12 19 C-10.82477293 16.60502969 -9.60294152 14.3536972 -8.25 12.0625 C-7.8890625 11.42892578 -7.528125 10.79535156 -7.15625 10.14257812 C-5.36846213 7.06253054 -3.63307538 4.40307783 -1 2 C-0.67 1.34 -0.34 0.68 0 0 Z " fill="#DB6925" transform="translate(225,378)"/>
<path d="M0 0 C0.66 0.33 1.32 0.66 2 1 C0.50829734 5.9723422 -1.60457417 10.41845739 -4 15 C-3.4112207 15.27183105 -2.82244141 15.54366211 -2.21582031 15.82373047 C-0.04213892 16.97763053 1.60187652 18.20904067 3.453125 19.8203125 C4.071875 20.35527344 4.690625 20.89023437 5.328125 21.44140625 C5.96234375 21.99699219 6.5965625 22.55257813 7.25 23.125 C7.8996875 23.68832031 8.549375 24.25164062 9.21875 24.83203125 C10.815727 26.21764364 12.40830122 27.60832754 14 29 C13.01 29.33 12.02 29.66 11 30 C7.25087516 27.43480932 4.16128304 24.24672312 1 21 C-1.1385485 18.8614515 -2.13275314 18.57344937 -5 18 C-6.32854177 12.0819503 -5.66464729 9.22270869 -3 4 C-2.01 4 -1.02 4 0 4 C0 2.68 0 1.36 0 0 Z " fill="#DA6C2C" transform="translate(196,455)"/>
<path d="M0 0 C-2.06918216 2.06918216 -3.30863991 2.65916757 -5.99072266 3.69580078 C-6.81142242 4.01598175 -7.63212219 4.33616272 -8.47769165 4.66604614 C-9.36419403 5.00570404 -10.25069641 5.34536194 -11.1640625 5.6953125 C-12.07127045 6.04761932 -12.97847839 6.39992615 -13.91317749 6.76290894 C-16.81522047 7.88857956 -19.72004754 9.00686192 -22.625 10.125 C-24.59133342 10.88623438 -26.55748171 11.64794713 -28.5234375 12.41015625 C-33.34682659 14.27899819 -38.17272557 16.14121829 -43 18 C-43.33 17.34 -43.66 16.68 -44 16 C-43.11739502 15.65219482 -42.23479004 15.30438965 -41.32543945 14.94604492 C-38.03464056 13.64682323 -34.74545898 12.343661 -31.45727539 11.0378418 C-30.03700031 10.47474355 -28.61610855 9.91319803 -27.19458008 9.35327148 C-25.14498284 8.54563684 -23.09770832 7.7323433 -21.05078125 6.91796875 C-20.4203743 6.67096725 -19.78996735 6.42396576 -19.14045715 6.16947937 C-15.538632 4.72920254 -12.27721174 3.07064692 -9 1 C-6.04335481 -0.4783226 -3.25770263 -0.06032783 0 0 Z " fill="#320E04" transform="translate(158,589)"/>
<path d="M0 0 C0.66 0.33 1.32 0.66 2 1 C-5.21304711 14.06965837 -12.56675889 27.05438123 -20 40 C-21.04449911 36.86650268 -20.93423645 36.01031744 -20 33 C-19.34 33 -18.68 33 -18 33 C-18 31.68 -18 30.36 -18 29 C-17.34 28.67 -16.68 28.34 -16 28 C-15.67 27.01 -15.34 26.02 -15 25 C-14.34 25 -13.68 25 -13 25 C-12.67 23.02 -12.34 21.04 -12 19 C-11.34 19 -10.68 19 -10 19 C-9.71125 18.278125 -9.4225 17.55625 -9.125 16.8125 C-8.08333333 14.20833333 -7.04166667 11.60416667 -6 9 C-5.34 9 -4.68 9 -4 9 C-4 7.68 -4 6.36 -4 5 C-2.5625 3.375 -2.5625 3.375 -1 2 C-0.67 1.34 -0.34 0.68 0 0 Z " fill="#321008" transform="translate(215,390)"/>
<path d="M0 0 C1.23783108 4.07987375 0.46410805 6.04776489 -1.1875 10 C-3.72522357 16.25924556 -5.92733875 22.57359222 -8 29 C-8.66 29 -9.32 29 -10 29 C-9.938125 29.9075 -9.87625 30.815 -9.8125 31.75 C-10.01686856 35.29238832 -10.52653696 36.52653696 -13 39 C-13.66 39 -14.32 39 -15 39 C-12.36205514 30.64187998 -9.09132953 22.5582885 -5.8125 14.4375 C-5.24780461 13.03330053 -4.68334957 11.62900437 -4.11914062 10.22460938 C-2.74886215 6.81528748 -1.37533859 3.40728428 0 0 Z " fill="#C46934" transform="translate(247,588)"/>
<path d="M0 0 C1.32 0 2.64 0 4 0 C3.42378217 5.88847263 1.74351432 10.89359129 -0.4375 16.375 C-0.75009766 17.19355469 -1.06269531 18.01210938 -1.38476562 18.85546875 C-3.74460095 24.87230048 -3.74460095 24.87230048 -6 26 C-3.92957946 18.39162534 -1.14169523 11.2271408 2 4 C1.67 3.67 1.34 3.34 1 3 C-3.62 6.3 -8.24 9.6 -13 13 C-13.33 12.34 -13.66 11.68 -14 11 C-11.7459927 7.44104111 -9.88230354 6.45586383 -6 5 C-5.46375 4.46375 -4.9275 3.9275 -4.375 3.375 C-3.92125 2.92125 -3.4675 2.4675 -3 2 C-2.01 2 -1.02 2 0 2 C0 1.34 0 0.68 0 0 Z " fill="#C76933" transform="translate(254,562)"/>
<path d="M0 0 C3.76603869 1.56282982 6.13639151 3.9063475 8.984375 6.7890625 C9.44483215 7.25234955 9.90528931 7.7156366 10.37969971 8.19296265 C11.84125078 9.66565898 13.29567168 11.14517403 14.75 12.625 C15.74302611 13.62806322 16.73651089 14.63067257 17.73046875 15.6328125 C20.15897941 18.08330835 22.58114675 20.5399667 25 23 C22 23 22 23 19.58984375 20.84765625 C18.71457031 19.92855469 17.83929688 19.00945313 16.9375 18.0625 C13.80039699 14.58797774 13.80039699 14.58797774 10 12 C10 11.34 10 10.68 10 10 C9.34 10 8.68 10 8 10 C8 9.34 8 8.68 8 8 C7.360625 7.731875 6.72125 7.46375 6.0625 7.1875 C4 6 4 6 3 3 C1.68 3 0.36 3 -1 3 C-1.103125 3.598125 -1.20625 4.19625 -1.3125 4.8125 C-2.08876455 7.28243264 -3.07088921 8.32251235 -5 10 C-3.84414715 6.08788267 -2.64465038 3.1254959 0 0 Z " fill="#C76B36" transform="translate(183,509)"/>
<path d="M0 0 C-1.85781257 0.92890629 -3.71574644 1.8575706 -5.57421875 2.78515625 C-7.24556324 3.62217418 -8.91471315 4.46358382 -10.58203125 5.30859375 C-11.44183594 5.74300781 -12.30164063 6.17742188 -13.1875 6.625 C-13.98542969 7.02976562 -14.78335938 7.43453125 -15.60546875 7.8515625 C-19.50691794 9.72273063 -23.34391317 11.21172253 -27.5625 12.1875 C-28.67818359 12.45626953 -28.67818359 12.45626953 -29.81640625 12.73046875 C-32.18109619 13.02235355 -33.72697216 12.63042053 -36 12 C-31.19824865 10.12050937 -26.39276496 8.2510398 -21.58349609 6.39086914 C-19.9470055 5.75626181 -18.31158086 5.11889867 -16.67724609 4.47875977 C-14.33183223 3.560649 -11.98279986 2.65242301 -9.6328125 1.74609375 C-8.89942657 1.45657333 -8.16604065 1.16705292 -7.41043091 0.86875916 C-2.22774341 -1.11387171 -2.22774341 -1.11387171 0 0 Z " fill="#311109" transform="translate(238,578)"/>
<path d="M0 0 C2.80921339 1.30228944 5.06973828 2.73636108 7.41796875 4.75 C8.03220703 5.2759375 8.64644531 5.801875 9.27929688 6.34375 C10.22385742 7.16359375 10.22385742 7.16359375 11.1875 8 C11.82880859 8.5465625 12.47011719 9.093125 13.13085938 9.65625 C17.86983998 13.73967996 17.86983998 13.73967996 19 16 C14.73262454 15.52584717 12.85698427 13.00349628 10 10 C9.01 9.34 8.02 8.68 7 8 C7 7.34 7 6.68 7 6 C4.66785852 4.79371992 2.50357861 3.8345262 0 3 C-0.18175781 3.63808594 -0.36351562 4.27617187 -0.55078125 4.93359375 C-0.80214844 5.75988281 -1.05351562 6.58617187 -1.3125 7.4375 C-1.55613281 8.26121094 -1.79976562 9.08492188 -2.05078125 9.93359375 C-2.36402344 10.61550781 -2.67726562 11.29742187 -3 12 C-3.99 12.33 -4.98 12.66 -6 13 C-6.33 13.99 -6.66 14.98 -7 16 C-7.33 15.34 -7.66 14.68 -8 14 C-6.75717988 11.54961707 -5.47117661 9.226675 -4.0625 6.875 C-3.48338867 5.88693359 -3.48338867 5.88693359 -2.89257812 4.87890625 C-1.93553422 3.248387 -0.96867185 1.62363816 0 0 Z " fill="#320D05" transform="translate(182,484)"/>
<path d="M0 0 C1.99887373 7.00714237 -1.76582217 13.8128772 -5 20 C-5.5259375 21.5778125 -5.5259375 21.5778125 -6.0625 23.1875 C-7 26 -7 26 -9 29 C-9.66 29 -10.32 29 -11 29 C-8.88355257 22.35831389 -6.4326092 15.89538217 -3.8125 9.4375 C-3.44447266 8.52419922 -3.07644531 7.61089844 -2.69726562 6.66992188 C-1.80056454 4.44563736 -0.90144402 2.22236555 0 0 Z " fill="#2C100B" transform="translate(273,569)"/>
<path d="M0 0 C0.33 0.66 0.66 1.32 1 2 C0.22265625 4.1640625 0.22265625 4.1640625 -0.9375 6.625 C-1.31777344 7.44226563 -1.69804687 8.25953125 -2.08984375 9.1015625 C-2.39019531 9.72804688 -2.69054687 10.35453125 -3 11 C-3.66 11 -4.32 11 -5 11 C-5.3403125 11.9590625 -5.3403125 11.9590625 -5.6875 12.9375 C-6.80781255 15.55156262 -8.03714119 17.90750028 -9.4375 20.375 C-11.58442536 24.16705456 -13.36760916 27.96198055 -15 32 C-15.66 32 -16.32 32 -17 32 C-17.33 32.99 -17.66 33.98 -18 35 C-18.33 34.34 -18.66 33.68 -19 33 C-18.01538086 30.8203125 -18.01538086 30.8203125 -16.46484375 28.125 C-15.90216797 27.13886719 -15.33949219 26.15273438 -14.75976562 25.13671875 C-14.15841797 24.10160156 -13.55707031 23.06648437 -12.9375 22 C-12.36322266 20.99582031 -11.78894531 19.99164062 -11.19726562 18.95703125 C-7.54426779 12.59002488 -3.80070516 6.27980345 0 0 Z " fill="#C16532" transform="translate(154,499)"/>
<path d="M0 0 C-3.78527667 1.59706209 -7.5755315 3.18158237 -11.37084961 4.75463867 C-12.66134426 5.29157402 -13.95042472 5.83192148 -15.23803711 6.37573242 C-17.08853251 7.1565773 -18.94459674 7.92418332 -20.80078125 8.69140625 C-21.91622314 9.15748291 -23.03166504 9.62355957 -24.1809082 10.10375977 C-27 11 -27 11 -30 10 C-28.68 9.67 -27.36 9.34 -26 9 C-26 8.34 -26 7.68 -26 7 C-19.39689117 4.11664248 -13.04583749 1.53727363 -6 0 C-3 -1 -3 -1 0 0 Z " fill="#CC6A31" transform="translate(185,565)"/>
<path d="M0 0 C1.32612202 3.97836607 0.29272141 5.36685775 -1.30859375 9.19921875 C-1.80810547 10.40771484 -2.30761719 11.61621094 -2.82226562 12.86132812 C-3.36047264 14.13680504 -3.89888679 15.41219457 -4.4375 16.6875 C-4.9728762 17.97424733 -5.50739212 19.26135295 -6.04101562 20.54882812 C-7.35223937 23.70285282 -8.67220398 26.85292431 -10 30 C-11.21730178 26.34809466 -10.65121324 25.49287938 -9.25 22 C-7.72756765 18.0687877 -6.49879727 14.2200688 -5.5 10.125 C-4.41588178 5.9382672 -3.1223148 3.1223148 0 0 Z " fill="#CE6C31" transform="translate(273,566)"/>
<path d="M0 0 C6.73280687 0.96182955 11.00112163 4.69863954 16 9 C15.67 9.99 15.34 10.98 15 12 C13.86111328 11.06027344 13.86111328 11.06027344 12.69921875 10.1015625 C11.70535156 9.28429687 10.71148437 8.46703125 9.6875 7.625 C8.20830078 6.40683594 8.20830078 6.40683594 6.69921875 5.1640625 C4.01091621 2.94395043 4.01091621 2.94395043 1 1 C0.731875 1.721875 0.46375 2.44375 0.1875 3.1875 C-0.98982498 5.97590126 -2.39145884 8.44095724 -4 11 C-5.24546405 8.50907189 -4.7767578 7.58919267 -4 5 C-3.34 5 -2.68 5 -2 5 C-1.34 3.35 -0.68 1.7 0 0 Z " fill="#C46834" transform="translate(181,483)"/>
<path d="M0 0 C0.66 0.33 1.32 0.66 2 1 C1.01 3.64 0.02 6.28 -1 9 C-1.99 9 -2.98 9 -4 9 C-7.3 14.94 -10.6 20.88 -14 27 C-14.33 27 -14.66 27 -15 27 C-15 25.35 -15 23.7 -15 22 C-14.34 22 -13.68 22 -13 22 C-12.731875 21.278125 -12.46375 20.55625 -12.1875 19.8125 C-11.00792738 17.01877538 -9.5578026 14.59633766 -8 12 C-7.67 11.0925 -7.34 10.185 -7 9.25 C-6.505 8.13625 -6.505 8.13625 -6 7 C-5.01 6.67 -4.02 6.34 -3 6 C-1.29144978 2.99992729 -1.29144978 2.99992729 0 0 Z " fill="#321C1A" transform="translate(232,363)"/>
<path d="M0 0 C-0.556875 0.24234375 -1.11375 0.4846875 -1.6875 0.734375 C-2.450625 1.06953125 -3.21375 1.4046875 -4 1.75 C-4.82371094 2.1109375 -5.64742187 2.471875 -6.49609375 2.84375 C-8.7543018 3.88654186 -10.89088236 5.04114724 -13.0625 6.25 C-17.17636718 8.36901408 -20.42660124 8.32667134 -25 8 C-21.21575821 5.47717214 -17.27953105 3.97597707 -13.0625 2.3125 C-12.25103516 1.97927734 -11.43957031 1.64605469 -10.60351562 1.30273438 C-9.81783203 0.99271484 -9.03214844 0.68269531 -8.22265625 0.36328125 C-7.50859619 0.07751221 -6.79453613 -0.20825684 -6.05883789 -0.50268555 C-3.68136025 -1.07696777 -2.29289248 -0.77289597 0 0 Z " fill="#CC6A30" transform="translate(206,573)"/>
<path d="M0 0 C0.66 0.33 1.32 0.66 2 1 C-0.11964246 4.79468568 -2.24661269 8.58521331 -4.375 12.375 C-4.97828125 13.45523437 -5.5815625 14.53546875 -6.203125 15.6484375 C-6.78320312 16.6796875 -7.36328125 17.7109375 -7.9609375 18.7734375 C-8.49509277 19.72653809 -9.02924805 20.67963867 -9.57958984 21.66162109 C-11 24 -11 24 -13 26 C-12.71872579 24.51882199 -12.42466268 23.04006751 -12.125 21.5625 C-11.96257812 20.73878906 -11.80015625 19.91507812 -11.6328125 19.06640625 C-11.42398438 18.38449219 -11.21515625 17.70257813 -11 17 C-10.34 16.67 -9.68 16.34 -9 16 C-8.34786708 13.97536745 -8.34786708 13.97536745 -8 12 C-7.34 12 -6.68 12 -6 12 C-5.87625 11.4225 -5.7525 10.845 -5.625 10.25 C-4.99351176 7.97664233 -4.11141809 6.0746471 -3 4 C-2.34 4 -1.68 4 -1 4 C-0.67 2.68 -0.34 1.36 0 0 Z " fill="#321009" transform="translate(181,449)"/>
<path d="M0 0 C1.58927373 5.09239119 -0.36380125 9.09140374 -2 14 C-2.66 14 -3.32 14 -4 14 C-4.268125 15.093125 -4.53625 16.18625 -4.8125 17.3125 C-5.930763 20.7850009 -6.43744207 21.71827034 -9 24 C-6.80148049 15.63019764 -3.50929804 7.88172441 0 0 Z " fill="#260F0C" transform="translate(261,599)"/>
<path d="M0 0 C0.33 0 0.66 0 1 0 C1.02892385 4.12498538 1.04677267 8.24994485 1.0625 12.375 C1.07087891 13.550625 1.07925781 14.72625 1.08789062 15.9375 C1.09111328 17.05898438 1.09433594 18.18046875 1.09765625 19.3359375 C1.10289307 20.37282715 1.10812988 21.4097168 1.11352539 22.47802734 C1 25 1 25 0 27 C-1.65 27 -3.3 27 -5 27 C-5 26.34 -5 25.68 -5 25 C-5.66 25 -6.32 25 -7 25 C-7 24.34 -7 23.68 -7 23 C-7.99 22.67 -8.98 22.34 -10 22 C-10 21.34 -10 20.68 -10 20 C-6.36185181 21.61695475 -4.30701392 23.35438887 -1 26 C-0.67 17.42 -0.34 8.84 0 0 Z " fill="#1C1115" transform="translate(230,496)"/>
<path d="M0 0 C0.66 0.33 1.32 0.66 2 1 C-2.62 8.92 -7.24 16.84 -12 25 C-13.60031344 21.79937313 -12.03173691 19.27728194 -11 16 C-10.01 16 -9.02 16 -8 16 C-7.8453125 14.6078125 -7.8453125 14.6078125 -7.6875 13.1875 C-6.9363995 9.70512497 -6.48257162 9.29867743 -4 7 C-2.5684768 4.71368238 -1.29579682 2.36818039 0 0 Z " fill="#311007" transform="translate(120,555)"/>
<path d="M0 0 C0.66 0.33 1.32 0.66 2 1 C-2.95 9.91 -2.95 9.91 -8 19 C-9.35961975 13.56152099 -7.52152362 10.8050013 -5 6 C-3.375 3.4375 -3.375 3.4375 -2 2 C-1.34 2 -0.68 2 0 2 C0 1.34 0 0.68 0 0 Z " fill="#2B100B" transform="translate(192,430)"/>
<path d="M0 0 C5.00188062 0.27282985 8.26058629 0.94587207 12.5625 3.5625 C16.68791617 6.05493894 19.23805013 6.50659041 24 6 C23.67 7.32 23.34 8.64 23 10 C15.08090444 7.54234965 7.58014704 4.33181427 0 1 C0 0.67 0 0.34 0 0 Z " fill="#C56B38" transform="translate(213,652)"/>
<path d="M0 0 C-4.0979661 1.70284849 -8.20425777 3.38461211 -12.3125 5.0625 C-14.06336914 5.79049805 -14.06336914 5.79049805 -15.84960938 6.53320312 C-16.96787109 6.98759766 -18.08613281 7.44199219 -19.23828125 7.91015625 C-20.26993408 8.33433838 -21.30158691 8.75852051 -22.36450195 9.19555664 C-25 10 -25 10 -28 9 C-26.10667466 8.18167278 -24.21022267 7.37057732 -22.3125 6.5625 C-20.72888672 5.88380859 -20.72888672 5.88380859 -19.11328125 5.19140625 C-16.38027471 4.14552545 -13.87957663 3.46479252 -11 3 C-11 2.34 -11 1.68 -11 1 C-3.375 -1.125 -3.375 -1.125 0 0 Z " fill="#2A0C06" transform="translate(186,579)"/>
<path d="M0 0 C1.13665504 3.40996511 0.91583208 3.86305848 -0.43359375 7.01171875 C-0.75263672 7.76904297 -1.07167969 8.52636719 -1.40039062 9.30664062 C-1.74263672 10.09232422 -2.08488281 10.87800781 -2.4375 11.6875 C-2.77587891 12.48478516 -3.11425781 13.28207031 -3.46289062 14.10351562 C-4.3000701 16.07265607 -5.1489353 18.03682084 -6 20 C-7.78092111 14.65723666 -5.5635223 9.0956367 -3.5 4 C-2 1 -2 1 0 0 Z " fill="#D0692C" transform="translate(283,541)"/>
<path d="M0 0 C0.33 0.66 0.66 1.32 1 2 C0.06023595 3.67815009 -0.88808513 5.35229477 -1.88671875 6.99609375 C-3.01327141 9.02388854 -3.79797647 11.00022679 -4.5625 13.1875 C-5.64249094 16.21030072 -6.74168892 18.64350148 -9 21 C-9.66 21 -10.32 21 -11 21 C-9.53171057 15.82064939 -7.18508737 11.65626588 -4.375 7.125 C-3.95476562 6.43664062 -3.53453125 5.74828125 -3.1015625 5.0390625 C-2.07307528 3.35608342 -1.037279 1.67757468 0 0 Z " fill="#CD682E" transform="translate(176,461)"/>
<path d="M0 0 C-4.0979661 1.70284849 -8.20425777 3.38461211 -12.3125 5.0625 C-14.06336914 5.79049805 -14.06336914 5.79049805 -15.84960938 6.53320312 C-16.96787109 6.98759766 -18.08613281 7.44199219 -19.23828125 7.91015625 C-20.26993408 8.33433838 -21.30158691 8.75852051 -22.36450195 9.19555664 C-25 10 -25 10 -28 9 C-27.21496094 8.67386719 -26.42992187 8.34773437 -25.62109375 8.01171875 C-18.82954153 5.19113941 -18.82954153 5.19113941 -12.0625 2.3125 C-11.051875 1.879375 -10.04125 1.44625 -9 1 C-8.113125 0.5875 -7.22625 0.175 -6.3125 -0.25 C-3.68033714 -1.10367444 -2.59084202 -0.7636166 0 0 Z " fill="#2F0C05" transform="translate(214,568)"/>
<path d="M0 0 C-1.11199337 2.50198509 -2.1039938 4.1039938 -4.0625 6.0625 C-6.9425032 10.42895646 -6.82025007 14.86813943 -7 20 C-7.66 20 -8.32 20 -9 20 C-9.4006495 12.49153158 -9.06068992 7.52443081 -3.9375 1.625 C-2 0 -2 0 0 0 Z " fill="#212633" transform="translate(517,555)"/>
<path d="M0 0 C0.33 0 0.66 0 1 0 C1.49038211 4.90382105 0.35565082 7.73201909 -1.921875 11.91015625 C-3.00446942 14.00866355 -3.7932218 16.08241161 -4.5625 18.3125 C-5.85648382 21.63184979 -6.49969276 22.74903088 -9 25 C-6.68860831 16.38296958 -3.39204534 8.23311977 0 0 Z " fill="#3B1508" transform="translate(251,623)"/>
<path d="M0 0 C3.29500545 1.4508725 6.58538494 2.91195155 9.875 4.375 C10.81214844 4.7875 11.74929687 5.2 12.71484375 5.625 C13.61074219 6.02460937 14.50664062 6.42421875 15.4296875 6.8359375 C16.25710449 7.20251465 17.08452148 7.5690918 17.93701172 7.94677734 C20 9 20 9 22 11 C16.72250715 10.46148032 12.74354436 9.22656164 8 7 C8 6.34 8 5.68 8 5 C6.865625 4.731875 5.73125 4.46375 4.5625 4.1875 C3.386875 3.795625 2.21125 3.40375 1 3 C0.67 2.01 0.34 1.02 0 0 Z " fill="#CD6A31" transform="translate(156,608)"/>
<path d="M0 0 C0.66 0 1.32 0 2 0 C0.53171057 5.17935061 -1.81491263 9.34373412 -4.625 13.875 C-5.04523438 14.56335938 -5.46546875 15.25171875 -5.8984375 15.9609375 C-6.92692472 17.64391658 -7.962721 19.32242532 -9 21 C-10.33332095 18.3333581 -9.67102033 16.83319697 -9 14 C-8.01 14 -7.02 14 -6 14 C-5.814375 12.5459375 -5.814375 12.5459375 -5.625 11.0625 C-5.41875 10.051875 -5.2125 9.04125 -5 8 C-4.34 7.67 -3.68 7.34 -3 7 C-2.34786708 4.97536745 -2.34786708 4.97536745 -2 3 C-1.34 3 -0.68 3 0 3 C0 2.01 0 1.02 0 0 Z " fill="#CB6B33" transform="translate(208,435)"/>
<path d="M0 0 C-2.71760277 2.71760277 -5.92987916 3.78511161 -9.4375 5.1875 C-10.4594043 5.61579102 -10.4594043 5.61579102 -11.50195312 6.05273438 C-16.63859042 8.12046986 -16.63859042 8.12046986 -20 7 C-17.35261084 5.5393715 -16.10551666 5 -13 5 C-12.67 4.01 -12.34 3.02 -12 2 C-8.02584132 -0.22085338 -4.4785979 -0.17563129 0 0 Z " fill="#D26F32" transform="translate(179,599)"/>
<path d="M0 0 C1.24546405 2.49092811 0.7767578 3.41080733 0 6 C2.64 5.67 5.28 5.34 8 5 C5.75043698 7.24956302 3.93676737 8.00510965 1 9.1875 C0.113125 9.55230469 -0.77375 9.91710937 -1.6875 10.29296875 C-4 11 -4 11 -6 10 C-4.02 6.7 -2.04 3.4 0 0 Z " fill="#C2764A" transform="translate(147,571)"/>
<path d="M0 0 C1.32 0.33 2.64 0.66 4 1 C4 1.66 4 2.32 4 3 C4.66 3 5.32 3 6 3 C6 3.66 6 4.32 6 5 C6.66 5 7.32 5 8 5 C8 5.66 8 6.32 8 7 C8.61875 7.2475 9.2375 7.495 9.875 7.75 C12.35068687 9.20628639 12.95125002 10.37812506 14 13 C14.66 13 15.32 13 16 13 C15.67 13.99 15.34 14.98 15 16 C12.49599357 13.5248518 9.99748094 11.04423106 7.5 8.5625 C6.78457031 7.85544922 6.06914062 7.14839844 5.33203125 6.41992188 C4.65527344 5.74638672 3.97851562 5.07285156 3.28125 4.37890625 C2.65283203 3.7557251 2.02441406 3.13254395 1.37695312 2.49047852 C0 1 0 1 0 0 Z " fill="#391509" transform="translate(208,532)"/>
<path d="M0 0 C2.84258606 1.31238168 5.09408245 2.76707176 7.453125 4.8203125 C8.071875 5.35527344 8.690625 5.89023437 9.328125 6.44140625 C9.96234375 6.99699219 10.5965625 7.55257813 11.25 8.125 C11.8996875 8.68832031 12.549375 9.25164062 13.21875 9.83203125 C14.815727 11.21764364 16.40830122 12.60832754 18 14 C17.01 14.33 16.02 14.66 15 15 C11.24341912 12.42970782 8.20840868 9.20840868 5 6 C3.6078125 4.9171875 3.6078125 4.9171875 2.1875 3.8125 C1.465625 3.214375 0.74375 2.61625 0 2 C0 1.34 0 0.68 0 0 Z " fill="#C76A35" transform="translate(192,470)"/>
<path d="M0 0 C0.33 0 0.66 0 1 0 C1 8.25 1 16.5 1 25 C0.67 25 0.34 25 0 25 C0 18.4 0 11.8 0 5 C-0.66 5 -1.32 5 -2 5 C-2.66 6.65 -3.32 8.3 -4 10 C-4.33 9.34 -4.66 8.68 -5 8 C-4.0390625 6.0546875 -4.0390625 6.0546875 -2.625 3.875 C-2.16351563 3.15054687 -1.70203125 2.42609375 -1.2265625 1.6796875 C-0.82179687 1.12539063 -0.41703125 0.57109375 0 0 Z " fill="#CE7341" transform="translate(227,373)"/>
<path d="M0 0 C-0.66 1.98 -1.32 3.96 -2 6 C-0.35 6.33 1.3 6.66 3 7 C3 7.66 3 8.32 3 9 C1.55903414 8.57405412 0.12231288 8.13373367 -1.3125 7.6875 C-2.11300781 7.44386719 -2.91351563 7.20023438 -3.73828125 6.94921875 C-6.09964573 5.95817977 -7.33879993 4.91925057 -9 3 C-2.25 0 -2.25 0 0 0 Z " fill="#391209" transform="translate(166,605)"/>
<path d="M0 0 C0.66 0.33 1.32 0.66 2 1 C1.01 1.33 0.02 1.66 -1 2 C-1 2.66 -1 3.32 -1 4 C-0.01 4.061875 0.98 4.12375 2 4.1875 C6.71827991 4.82432306 10.1745514 7.30728164 14 10 C13.01 10.495 13.01 10.495 12 11 C9.2473963 9.9747506 6.61163372 8.88865303 3.9375 7.6875 C3.19177734 7.36587891 2.44605469 7.04425781 1.67773438 6.71289062 C-3.8706496 4.2587008 -3.8706496 4.2587008 -5 2 C-2.625 0.9375 -2.625 0.9375 0 0 Z " fill="#BC6B3D" transform="translate(118,605)"/>
<path d="M0 0 C0.33 1.32 0.66 2.64 1 4 C-0.43429001 4.67354499 -1.87257057 5.33859701 -3.3125 6 C-4.51326172 6.556875 -4.51326172 6.556875 -5.73828125 7.125 C-8 8 -8 8 -11 8 C-11 7.01 -11 6.02 -11 5 C-7.37 3.35 -3.74 1.7 0 0 Z " fill="#D96E2E" transform="translate(121,586)"/>
<path d="M0 0 C0.66 0 1.32 0 2 0 C1.67 1.65 1.34 3.3 1 5 C0.34 5 -0.32 5 -1 5 C-0.938125 5.9075 -0.87625 6.815 -0.8125 7.75 C-1.01686856 11.29238832 -1.52653696 12.52653696 -4 15 C-4.66 15 -5.32 15 -6 15 C-4.36041242 9.76727367 -2.61047965 4.84803364 0 0 Z " fill="#CF6B2F" transform="translate(238,612)"/>
<path d="M0 0 C0.66 0.33 1.32 0.66 2 1 C-0.37033864 3.76669035 -2.46545585 4.72666067 -5.9375 5.75 C-6.79214844 6.01296875 -7.64679688 6.2759375 -8.52734375 6.546875 C-11.09097669 7.01667187 -12.56117696 6.83746128 -15 6 C-12.54524486 4.96971956 -10.08685649 3.95054496 -7.625 2.9375 C-6.57699219 2.49567383 -6.57699219 2.49567383 -5.5078125 2.04492188 C-3.69495092 1.30408902 -1.84876857 0.64603036 0 0 Z " fill="#2D120C" transform="translate(158,575)"/>
<path d="M0 0 C-2.76628111 1.19922024 -5.537155 2.38460499 -8.3125 3.5625 C-9.49102539 4.07586914 -9.49102539 4.07586914 -10.69335938 4.59960938 C-11.45068359 4.91865234 -12.20800781 5.23769531 -12.98828125 5.56640625 C-13.68477783 5.86490479 -14.38127441 6.16340332 -15.09887695 6.47094727 C-17 7 -17 7 -20 6 C-14.62966622 1.79081947 -6.79504195 -2.26501398 0 0 Z " fill="#CE6B32" transform="translate(205,557)"/>
<path d="M0 0 C5.62219846 4.66522851 11.16010796 9.51259405 16 15 C16 15.66 16 16.32 16 17 C15.01 17 14.02 17 13 17 C11.99260254 15.33779419 10.99477045 13.66979326 10 12 C7.23775072 8.99440971 4.28064324 6.18168444 1.28125 3.4140625 C0 2 0 2 0 0 Z " fill="#CE713B" transform="translate(208,533)"/>
<path d="M0 0 C-5.81372794 5.03856421 -10.38691515 5.84856432 -18 6 C-14.87754953 3.91836635 -11.92965119 2.67424387 -8.4375 1.3125 C-7.28121094 0.85488281 -6.12492188 0.39726563 -4.93359375 -0.07421875 C-2 -1 -2 -1 0 0 Z " fill="#301109" transform="translate(202,592)"/>
<path d="M0 0 C-3.01447835 2.57075841 -5.35979771 3.52207066 -9.25 4.1875 C-10.58804688 4.42533203 -10.58804688 4.42533203 -11.953125 4.66796875 C-12.96632812 4.83232422 -12.96632812 4.83232422 -14 5 C-14 5.66 -14 6.32 -14 7 C-15.98 7 -17.96 7 -20 7 C-17.16142754 4.16142754 -13.6940834 3.1848649 -10 1.8125 C-8.89398438 1.38420898 -8.89398438 1.38420898 -7.765625 0.94726562 C-2.24553571 -1.12276786 -2.24553571 -1.12276786 0 0 Z " fill="#C46A35" transform="translate(171,586)"/>
<path d="M0 0 C1.36420006 4.09260018 -0.2335485 6.47012659 -1.9375 10.1875 C-2.22818359 10.84169922 -2.51886719 11.49589844 -2.81835938 12.16992188 C-3.53695343 13.78381344 -4.2673588 15.39243655 -5 17 C-6.15941038 13.52176885 -5.70820884 11.54104422 -5 8 C-4.34 8 -3.68 8 -3 8 C-2.87625 6.865625 -2.7525 5.73125 -2.625 4.5625 C-2.41875 3.386875 -2.2125 2.21125 -2 1 C-1.34 0.67 -0.68 0.34 0 0 Z " fill="#D26E34" transform="translate(290,524)"/>
<path d="M0 0 C-1.37306557 3.39019797 -2.53641421 4.60738053 -5.875 6.0625 C-8.87935446 7.44450305 -11.44178244 8.86815203 -14 11 C-14.66 10.67 -15.32 10.34 -16 10 C-13.71234889 8.32756577 -11.42026108 6.66193073 -9.125 5 C-8.47402344 4.52304687 -7.82304687 4.04609375 -7.15234375 3.5546875 C-2.2265625 0 -2.2265625 0 0 0 Z " fill="#CC6C35" transform="translate(268,535)"/>
<path d="M0 0 C0.33 0.66 0.66 1.32 1 2 C0.03567924 3.68756133 -0.9731657 5.3497306 -2 7 C-3.06839784 9.30927245 -4.03081018 11.6462533 -5 14 C-5.66 14 -6.32 14 -7 14 C-7.33 14.99 -7.66 15.98 -8 17 C-8.33 16.34 -8.66 15.68 -9 15 C-7.7796615 12.56816603 -6.51503995 10.26895497 -5.125 7.9375 C-4.74730469 7.28716797 -4.36960938 6.63683594 -3.98046875 5.96679688 C-1.18268327 1.18268327 -1.18268327 1.18268327 0 0 Z " fill="#CD6D36" transform="translate(144,517)"/>
<path d="M0 0 C0.66 0.33 1.32 0.66 2 1 C0.49200696 4.01598607 -1.67733534 4.13739043 -4.8125 5.1875 C-6.39998047 5.73470703 -6.39998047 5.73470703 -8.01953125 6.29296875 C-10.91724451 6.98036862 -12.26601422 7.03931179 -15 6 C-12.54524486 4.96971956 -10.08685649 3.95054496 -7.625 2.9375 C-6.57699219 2.49567383 -6.57699219 2.49567383 -5.5078125 2.04492188 C-3.69495092 1.30408902 -1.84876857 0.64603036 0 0 Z " fill="#351308" transform="translate(182,598)"/>
<path d="M0 0 C0.66 0.66 1.32 1.32 2 2 C1.32453125 2.10957031 0.6490625 2.21914063 -0.046875 2.33203125 C-0.93890625 2.49058594 -1.8309375 2.64914062 -2.75 2.8125 C-3.63171875 2.96332031 -4.5134375 3.11414063 -5.421875 3.26953125 C-8.1910911 4.05414248 -9.8259401 5.14595359 -12 7 C-11.8125 5.1875 -11.8125 5.1875 -11 3 C-7.37784428 0.10227542 -4.58771324 -0.50974592 0 0 Z " fill="#222732" transform="translate(796,554)"/>
<path d="M0 0 C3.47775179 1.51553404 5.9557984 3.5773456 8.75 6.125 C9.94882813 7.21167969 9.94882813 7.21167969 11.171875 8.3203125 C11.77515625 8.87460937 12.3784375 9.42890625 13 10 C12.01 10.495 12.01 10.495 11 11 C10.01 10.34 9.02 9.68 8 9 C8 8.34 8 7.68 8 7 C6.68 6.67 5.36 6.34 4 6 C4 5.34 4 4.68 4 4 C2.68 3.34 1.36 2.68 0 2 C0 1.34 0 0.68 0 0 Z " fill="#290C07" transform="translate(207,505)"/>
<path d="M0 0 C1.32830615 3.98491845 0.23204404 5.40048548 -1.4375 9.1875 C-1.91058594 10.27417969 -2.38367188 11.36085938 -2.87109375 12.48046875 C-3.42990234 13.72763672 -3.42990234 13.72763672 -4 15 C-5.18771723 11.57056481 -4.80226223 9.62215325 -3.5625 6.25 C-3.27503906 5.45078125 -2.98757812 4.6515625 -2.69140625 3.828125 C-2.46324219 3.22484375 -2.23507813 2.6215625 -2 2 C-1.34 2 -0.68 2 0 2 C0 1.34 0 0.68 0 0 Z " fill="#D27035" transform="translate(250,623)"/>
<path d="M0 0 C0.33 0.99 0.66 1.98 1 3 C3.97 2.34 6.94 1.68 10 1 C7.96180154 3.03819846 6.70582202 3.67841059 4.0625 4.6875 C3.37285156 4.95949219 2.68320313 5.23148438 1.97265625 5.51171875 C0 6 0 6 -3 5 C-2.01 3.35 -1.02 1.7 0 0 Z " fill="#BB683C" transform="translate(100,593)"/>
<path d="M0 0 C-3.12493704 3.12493704 -5.91645015 3.95911133 -10.3125 4.125 C-11.199375 4.08375 -12.08625 4.0425 -13 4 C-12 2 -12 2 -9.875 0.875 C-6.47608911 -0.15945114 -3.53359114 -0.1385722 0 0 Z " fill="#220F0E" transform="translate(158,589)"/>
<path d="M0 0 C6.27 0 12.54 0 19 0 C19 0.33 19 0.66 19 1 C17.95199219 1.04898437 16.90398438 1.09796875 15.82421875 1.1484375 C14.44528646 1.22348143 13.0663815 1.29902857 11.6875 1.375 C10.65206055 1.42140625 10.65206055 1.42140625 9.59570312 1.46875 C5.93009211 1.68124919 4.12099208 1.91933861 1 4 C0.67 2.68 0.34 1.36 0 0 Z " fill="#090E1B" transform="translate(497,476)"/>
<path d="M0 0 C3.37503669 1.1858237 5.64722731 2.27573689 8 5 C7.67 5.99 7.34 6.98 7 8 C1.125 3.375 1.125 3.375 0 0 Z " fill="#D4692A" transform="translate(189,487)"/>
<path d="M0 0 C1.26937991 3.53324217 0.7575638 5.33100318 -0.8125 8.6875 C-1.16957031 9.47511719 -1.52664062 10.26273438 -1.89453125 11.07421875 C-3 13 -3 13 -5 14 C-4.54636829 12.41531323 -4.08688548 10.83230076 -3.625 9.25 C-3.36976563 8.36828125 -3.11453125 7.4865625 -2.8515625 6.578125 C-2.0790066 4.23919428 -1.16374324 2.16557438 0 0 Z " fill="#331007" transform="translate(257,609)"/>
<path d="M0 0 C0.33 0.66 0.66 1.32 1 2 C0.06421005 4.35981813 -0.93347808 6.69631264 -2 9 C-2.66 9 -3.32 9 -4 9 C-4.66 10.65 -5.32 12.3 -6 14 C-6.33 13.34 -6.66 12.68 -7 12 C-5.56640625 9.1796875 -5.56640625 9.1796875 -3.5625 5.875 C-2.57443359 4.23144531 -2.57443359 4.23144531 -1.56640625 2.5546875 C-1.04949219 1.71164062 -0.53257813 0.86859375 0 0 Z " fill="#C96C36" transform="translate(112,572)"/>
<path d="M0 0 C0.66 0.33 1.32 0.66 2 1 C0.68 3.97 -0.64 6.94 -2 10 C-2.33 10 -2.66 10 -3 10 C-3 8.35 -3 6.7 -3 5 C-3.66 4.67 -4.32 4.34 -5 4 C-3.35 2.68 -1.7 1.36 0 0 Z " fill="#B76B42" transform="translate(294,514)"/>
<path d="M0 0 C0.99 0.33 1.98 0.66 3 1 C-1.455 4.465 -1.455 4.465 -6 8 C-6.66 7.67 -7.32 7.34 -8 7 C-8 6.34 -8 5.68 -8 5 C-7.236875 4.731875 -6.47375 4.46375 -5.6875 4.1875 C-3.12619116 3.05575888 -1.80307062 2.08776599 0 0 Z " fill="#32120A" transform="translate(283,520)"/>
<path d="M0 0 C1.32 0.66 2.64 1.32 4 2 C4 2.33 4 2.66 4 3 C2.35 3 0.7 3 -1 3 C-1.103125 3.598125 -1.20625 4.19625 -1.3125 4.8125 C-2.08876455 7.28243264 -3.07088921 8.32251235 -5 10 C-3.84414715 6.08788267 -2.64465038 3.1254959 0 0 Z " fill="#BC6839" transform="translate(183,509)"/>
<path d="M0 0 C0 0.66 0 1.32 0 2 C-1.28650706 2.69710731 -2.57940665 3.38242876 -3.875 4.0625 C-4.95394531 4.63677734 -4.95394531 4.63677734 -6.0546875 5.22265625 C-6.69664062 5.47917969 -7.33859375 5.73570312 -8 6 C-8.66 5.67 -9.32 5.34 -10 5 C-4.5 0 -4.5 0 0 0 Z " fill="#280C07" transform="translate(254,567)"/>
<path d="M0 0 C0.66 0 1.32 0 2 0 C1.75 2.875 1.75 2.875 1 6 C-1 7.25 -1 7.25 -3 8 C-3.33 8.66 -3.66 9.32 -4 10 C-3.49396008 7.83125748 -3.00016187 6.00032373 -2 4 C-1.34 4 -0.68 4 0 4 C0 2.68 0 1.36 0 0 Z " fill="#D26727" transform="translate(143,546)"/>
<path d="M0 0 C0.66 0.33 1.32 0.66 2 1 C0.02 4.63 -1.96 8.26 -4 12 C-5.11841676 8.64474971 -4.91538821 8.02910146 -3.6875 4.875 C-3.42324219 4.17117188 -3.15898437 3.46734375 -2.88671875 2.7421875 C-2 1 -2 1 0 0 Z " fill="#3B160A" transform="translate(147,568)"/>
<path d="M0 0 C0.66 0 1.32 0 2 0 C1.01 3.3 0.02 6.6 -1 10 C-1.33 10 -1.66 10 -2 10 C-2.25 3.375 -2.25 3.375 0 0 Z " fill="#1F0C0C" transform="translate(282,548)"/>
<path d="M0 0 C0.33 0 0.66 0 1 0 C0.67 2.64 0.34 5.28 0 8 C-0.66 8 -1.32 8 -2 8 C-2 8.99 -2 9.98 -2 11 C-2.66 11 -3.32 11 -4 11 C-3.52269162 9.5410574 -3.04308958 8.08286504 -2.5625 6.625 C-2.29566406 5.81289063 -2.02882813 5.00078125 -1.75390625 4.1640625 C-1 2 -1 2 0 0 Z " fill="#2B0F09" transform="translate(295,515)"/>
<path d="M0 0 C0 3.10551666 -0.5393715 4.35261084 -2 7 C-2.66 7 -3.32 7 -4 7 C-4.33 7.99 -4.66 8.98 -5 10 C-5.33 9.34 -5.66 8.68 -6 8 C-2.58823529 1.29411765 -2.58823529 1.29411765 0 0 Z " fill="#240C08" transform="translate(180,490)"/>
<path d="M0 0 C4.05281712 1.22527029 7.44360764 2.69880494 11 5 C10.01 5.495 10.01 5.495 9 6 C6.8359375 5.22265625 6.8359375 5.22265625 4.375 4.0625 C3.55773437 3.68222656 2.74046875 3.30195312 1.8984375 2.91015625 C1.27195313 2.60980469 0.64546875 2.30945313 0 2 C0 1.34 0 0.68 0 0 Z " fill="#C16633" transform="translate(193,642)"/>
<path d="M0 0 C1.39864092 3.17872935 0.89282517 4.30111022 -0.3125 7.6875 C-2 11 -2 11 -4 12 C-3.52309796 10.37433394 -3.04340334 8.74948689 -2.5625 7.125 C-2.29566406 6.22007812 -2.02882812 5.31515625 -1.75390625 4.3828125 C-1 2 -1 2 0 0 Z " fill="#C26531" transform="translate(231,628)"/>
<path d="M0 0 C0.66 0.33 1.32 0.66 2 1 C1.01 2.485 1.01 2.485 0 4 C-1.9453125 4.29296875 -1.9453125 4.29296875 -4.125 4.1875 C-5.40375 4.125625 -6.6825 4.06375 -8 4 C-5.31143836 2.20762558 -3.0466145 1.01553817 0 0 Z " fill="#C2642D" transform="translate(179,581)"/>
<path d="M0 0 C-1.28519565 2.86697492 -2.57129254 4.97607712 -5 7 C-5.66 7 -6.32 7 -7 7 C-4.60526316 0 -4.60526316 0 0 0 Z " fill="#181D28" transform="translate(829,555)"/>
<path d="M0 0 C0.33 0.66 0.66 1.32 1 2 C3.64 1.67 6.28 1.34 9 1 C6.50939295 3.49060705 4.37044767 4.08717042 1 5 C0.34 4.67 -0.32 4.34 -1 4 C-0.67 2.68 -0.34 1.36 0 0 Z " fill="#D27137" transform="translate(146,575)"/>
<path d="M0 0 C0 0.66 0 1.32 0 2 C-0.66 2 -1.32 2 -2 2 C-2.4640625 2.928125 -2.4640625 2.928125 -2.9375 3.875 C-3.625 5.25 -4.3125 6.625 -5 8 C-5.66 8 -6.32 8 -7 8 C-4.18918919 0 -4.18918919 0 0 0 Z " fill="#1C212C" transform="translate(650,555)"/>
<path d="M0 0 C0 1.65 0 3.3 0 5 C-0.99 5.495 -0.99 5.495 -2 6 C-2.33 5.34 -2.66 4.68 -3 4 C-3.66 4.66 -4.32 5.32 -5 6 C-5.99 5.67 -6.98 5.34 -8 5 C-6.8562364 4.16382818 -5.70992861 3.33113541 -4.5625 2.5 C-3.92441406 2.0359375 -3.28632813 1.571875 -2.62890625 1.09375 C-1 0 -1 0 0 0 Z " fill="#E86A20" transform="translate(291,519)"/>
<path d="M0 0 C1.39195915 4.17587745 -0.17676781 6.13474776 -2 10 C-3.01136941 7.26930259 -3.04557718 6.13998707 -2.125 3.3125 C-1 1 -1 1 0 0 Z " fill="#C66931" transform="translate(242,643)"/>
<path d="M0 0 C-3.96 1.98 -3.96 1.98 -8 4 C-8.66 3.34 -9.32 2.68 -10 2 C-8.71211992 1.46987262 -7.41953322 0.9511671 -6.125 0.4375 C-5.40570313 0.14746094 -4.68640625 -0.14257812 -3.9453125 -0.44140625 C-2 -1 -2 -1 0 0 Z " fill="#171019" transform="translate(211,590)"/>
<path d="M0 0 C0.33 0.66 0.66 1.32 1 2 C0.22265625 3.7265625 0.22265625 3.7265625 -0.9375 5.625 C-1.618125 6.73875 -2.29875 7.8525 -3 9 C-4 7 -4 7 -3.1875 3.9375 C-2 1 -2 1 0 0 Z " fill="#D27134" transform="translate(169,504)"/>
</svg>
